<?xml version="1.0" encoding="us-ascii" standalone="no"?><svg xmlns="http://www.w3.org/2000/svg" xmlns:xlink="http://www.w3.org/1999/xlink" contentStyleType="text/css" height="1286px" preserveAspectRatio="none" style="width:1708px;height:1286px;background:#FFFFFF;" version="1.1" viewBox="0 0 1708 1286" width="1708px" zoomAndPan="magnify"><defs/><g><text fill="#000000" font-family="Arial" font-size="14" font-weight="bold" lengthAdjust="spacing" textLength="259" x="725.75" y="28.1318">Agri Watch - Web Ingestion Sequence</text><rect fill="#FFFFFF" height="1038.5034" style="stroke:#3F4E5E;stroke-width:1.0;" width="10" x="166" y="149.146"/><rect fill="#FFFFFF" height="980.606" style="stroke:#3F4E5E;stroke-width:1.0;" width="10" x="387" y="178.0947"/><rect fill="#FFFFFF" height="255.2388" style="stroke:#3F4E5E;stroke-width:1.0;" width="10" x="701" y="288.8896"/><rect fill="#FFFFFF" height="293.4873" style="stroke:#3F4E5E;stroke-width:1.0;" width="10" x="1297.5" y="757.7183"/><rect fill="none" height="293.1362" style="stroke:#000000;stroke-width:1.5;" width="648" x="311" y="250.9922"/><rect fill="none" height="204.29" style="stroke:#000000;stroke-width:1.5;" width="628" x="321" y="332.8384"/><rect fill="none" height="147.6924" style="stroke:#000000;stroke-width:1.5;" width="803" x="321" y="558.1284"/><rect fill="none" height="395.9824" style="stroke:#000000;stroke-width:1.5;" width="1380.5" x="321" y="719.8208"/><rect fill="none" height="192.6411" style="stroke:#000000;stroke-width:1.5;" width="670.5" x="1021" y="830.6157"/><rect fill="none" height="74.8462" style="stroke:#000000;stroke-width:1.5;" width="428" x="1253.5" y="912.4619"/><line style="stroke:#3F4E5E;stroke-width:0.5;stroke-dasharray:5.0,5.0;" x1="50" x2="50" y1="118.1973" y2="1205.6494"/><line style="stroke:#3F4E5E;stroke-width:0.5;stroke-dasharray:5.0,5.0;" x1="171" x2="171" y1="118.1973" y2="1205.6494"/><line style="stroke:#3F4E5E;stroke-width:0.5;stroke-dasharray:5.0,5.0;" x1="392" x2="392" y1="118.1973" y2="1205.6494"/><line style="stroke:#3F4E5E;stroke-width:0.5;stroke-dasharray:5.0,5.0;" x1="571.5" x2="571.5" y1="118.1973" y2="1205.6494"/><line style="stroke:#3F4E5E;stroke-width:0.5;stroke-dasharray:5.0,5.0;" x1="705.5" x2="705.5" y1="118.1973" y2="1205.6494"/><line style="stroke:#3F4E5E;stroke-width:0.5;stroke-dasharray:5.0,5.0;" x1="892" x2="892" y1="118.1973" y2="1205.6494"/><line style="stroke:#3F4E5E;stroke-width:0.5;stroke-dasharray:5.0,5.0;" x1="985" x2="985" y1="118.1973" y2="1205.6494"/><line style="stroke:#3F4E5E;stroke-width:0.5;stroke-dasharray:5.0,5.0;" x1="1072" x2="1072" y1="118.1973" y2="1205.6494"/><line style="stroke:#3F4E5E;stroke-width:0.5;stroke-dasharray:5.0,5.0;" x1="1302.5" x2="1302.5" y1="118.1973" y2="1205.6494"/><line style="stroke:#3F4E5E;stroke-width:0.5;stroke-dasharray:5.0,5.0;" x1="1495.5" x2="1495.5" y1="118.1973" y2="1205.6494"/><line style="stroke:#3F4E5E;stroke-width:0.5;stroke-dasharray:5.0,5.0;" x1="1605.5" x2="1605.5" y1="118.1973" y2="1205.6494"/><text fill="#000000" font-family="Arial" font-size="14" lengthAdjust="spacing" textLength="84" x="5" y="115.2305">Administrator</text><ellipse cx="50" cy="50.5986" fill="#E2E2F0" rx="8" ry="8" style="stroke:#181818;stroke-width:0.5;"/><path d="M50,58.5986 L50,85.5986 M37,66.5986 L63,66.5986 M50,85.5986 L37,100.5986 M50,85.5986 L63,100.5986 " fill="none" style="stroke:#181818;stroke-width:0.5;"/><text fill="#000000" font-family="Arial" font-size="14" lengthAdjust="spacing" textLength="84" x="5" y="1217.7813">Administrator</text><ellipse cx="50" cy="1229.248" fill="#E2E2F0" rx="8" ry="8" style="stroke:#181818;stroke-width:0.5;"/><path d="M50,1237.248 L50,1264.248 M37,1245.248 L63,1245.248 M50,1264.248 L37,1279.248 M50,1264.248 L63,1279.248 " fill="none" style="stroke:#181818;stroke-width:0.5;"/><rect fill="#F7F9FC" height="30.0986" rx="2.5" ry="2.5" style="stroke:#3F4E5E;stroke-width:0.5;" width="90" x="126" y="87.0986"/><text fill="#000000" font-family="Arial" font-size="14" lengthAdjust="spacing" textLength="76" x="133" y="107.2305">FastAPI API</text><rect fill="#F7F9FC" height="30.0986" rx="2.5" ry="2.5" style="stroke:#3F4E5E;stroke-width:0.5;" width="90" x="126" y="1204.6494"/><text fill="#000000" font-family="Arial" font-size="14" lengthAdjust="spacing" textLength="76" x="133" y="1224.7813">FastAPI API</text><rect fill="#F7F9FC" height="30.0986" rx="2.5" ry="2.5" style="stroke:#3F4E5E;stroke-width:0.5;" width="122" x="331" y="87.0986"/><text fill="#000000" font-family="Arial" font-size="14" lengthAdjust="spacing" textLength="108" x="338" y="107.2305">IngestionPipeline</text><rect fill="#F7F9FC" height="30.0986" rx="2.5" ry="2.5" style="stroke:#3F4E5E;stroke-width:0.5;" width="122" x="331" y="1204.6494"/><text fill="#000000" font-family="Arial" font-size="14" lengthAdjust="spacing" textLength="108" x="338" y="1224.7813">IngestionPipeline</text><rect fill="#F7F9FC" height="30.0986" rx="2.5" ry="2.5" style="stroke:#3F4E5E;stroke-width:0.5;" width="115" x="514.5" y="87.0986"/><text fill="#000000" font-family="Arial" font-size="14" lengthAdjust="spacing" textLength="101" x="521.5" y="107.2305">Source Registry</text><rect fill="#F7F9FC" height="30.0986" rx="2.5" ry="2.5" style="stroke:#3F4E5E;stroke-width:0.5;" width="115" x="514.5" y="1204.6494"/><text fill="#000000" font-family="Arial" font-size="14" lengthAdjust="spacing" textLength="101" x="521.5" y="1224.7813">Source Registry</text><rect fill="#F7F9FC" height="30.0986" rx="2.5" ry="2.5" style="stroke:#3F4E5E;stroke-width:0.5;" width="133" x="639.5" y="87.0986"/><text fill="#000000" font-family="Arial" font-size="14" lengthAdjust="spacing" textLength="119" x="646.5" y="107.2305">RSS/Atom Scraper</text><rect fill="#F7F9FC" height="30.0986" rx="2.5" ry="2.5" style="stroke:#3F4E5E;stroke-width:0.5;" width="133" x="639.5" y="1204.6494"/><text fill="#000000" font-family="Arial" font-size="14" lengthAdjust="spacing" textLength="119" x="646.5" y="1224.7813">RSS/Atom Scraper</text><rect fill="#F7F9FC" height="30.0986" rx="2.5" ry="2.5" style="stroke:#3F4E5E;stroke-width:0.5;" width="94" x="845" y="87.0986"/><text fill="#000000" font-family="Arial" font-size="14" lengthAdjust="spacing" textLength="80" x="852" y="107.2305">Official Feed</text><rect fill="#F7F9FC" height="30.0986" rx="2.5" ry="2.5" style="stroke:#3F4E5E;stroke-width:0.5;" width="94" x="845" y="1204.6494"/><text fill="#000000" font-family="Arial" font-size="14" lengthAdjust="spacing" textLength="80" x="852" y="1224.7813">Official Feed</text><rect fill="#F7F9FC" height="30.0986" rx="2.5" ry="2.5" style="stroke:#3F4E5E;stroke-width:0.5;" width="72" x="949" y="87.0986"/><text fill="#000000" font-family="Arial" font-size="14" lengthAdjust="spacing" textLength="58" x="956" y="107.2305">Classifier</text><rect fill="#F7F9FC" height="30.0986" rx="2.5" ry="2.5" style="stroke:#3F4E5E;stroke-width:0.5;" width="72" x="949" y="1204.6494"/><text fill="#000000" font-family="Arial" font-size="14" lengthAdjust="spacing" textLength="58" x="956" y="1224.7813">Classifier</text><text fill="#000000" font-family="Arial" font-size="14" lengthAdjust="spacing" textLength="77" x="1031" y="115.2305">SQLiteStore</text><path d="M1054.5,66.0986 C1054.5,56.0986 1072.5,56.0986 1072.5,56.0986 C1072.5,56.0986 1090.5,56.0986 1090.5,66.0986 L1090.5,92.0986 C1090.5,102.0986 1072.5,102.0986 1072.5,102.0986 C1072.5,102.0986 1054.5,102.0986 1054.5,92.0986 L1054.5,66.0986 " fill="#E2E2F0" style="stroke:#181818;stroke-width:1.5;"/><path d="M1054.5,66.0986 C1054.5,76.0986 1072.5,76.0986 1072.5,76.0986 C1072.5,76.0986 1090.5,76.0986 1090.5,66.0986 " fill="none" style="stroke:#181818;stroke-width:1.5;"/><text fill="#000000" font-family="Arial" font-size="14" lengthAdjust="spacing" textLength="77" x="1031" y="1217.7813">SQLiteStore</text><path d="M1054.5,1230.748 C1054.5,1220.748 1072.5,1220.748 1072.5,1220.748 C1072.5,1220.748 1090.5,1220.748 1090.5,1230.748 L1090.5,1256.748 C1090.5,1266.748 1072.5,1266.748 1072.5,1266.748 C1072.5,1266.748 1054.5,1266.748 1054.5,1256.748 L1054.5,1230.748 " fill="#E2E2F0" style="stroke:#181818;stroke-width:1.5;"/><path d="M1054.5,1230.748 C1054.5,1240.748 1072.5,1240.748 1072.5,1240.748 C1072.5,1240.748 1090.5,1240.748 1090.5,1230.748 " fill="none" style="stroke:#181818;stroke-width:1.5;"/><rect fill="#F7F9FC" height="30.0986" rx="2.5" ry="2.5" style="stroke:#3F4E5E;stroke-width:0.5;" width="78" x="1263.5" y="87.0986"/><text fill="#000000" font-family="Arial" font-size="14" lengthAdjust="spacing" textLength="64" x="1270.5" y="107.2305">LocalRAG</text><rect fill="#F7F9FC" height="30.0986" rx="2.5" ry="2.5" style="stroke:#3F4E5E;stroke-width:0.5;" width="78" x="1263.5" y="1204.6494"/><text fill="#000000" font-family="Arial" font-size="14" lengthAdjust="spacing" textLength="64" x="1270.5" y="1224.7813">LocalRAG</text><rect fill="#F7F9FC" height="30.0986" rx="2.5" ry="2.5" style="stroke:#3F4E5E;stroke-width:0.5;" width="68" x="1461.5" y="87.0986"/><text fill="#000000" font-family="Arial" font-size="14" lengthAdjust="spacing" textLength="54" x="1468.5" y="107.2305">Chunker</text><rect fill="#F7F9FC" height="30.0986" rx="2.5" ry="2.5" style="stroke:#3F4E5E;stroke-width:0.5;" width="68" x="1461.5" y="1204.6494"/><text fill="#000000" font-family="Arial" font-size="14" lengthAdjust="spacing" textLength="54" x="1468.5" y="1224.7813">Chunker</text><rect fill="#F7F9FC" height="30.0986" rx="2.5" ry="2.5" style="stroke:#3F4E5E;stroke-width:0.5;" width="132" x="1539.5" y="87.0986"/><text fill="#000000" font-family="Arial" font-size="14" lengthAdjust="spacing" textLength="118" x="1546.5" y="107.2305">HashingEmbedder</text><rect fill="#F7F9FC" height="30.0986" rx="2.5" ry="2.5" style="stroke:#3F4E5E;stroke-width:0.5;" width="132" x="1539.5" y="1204.6494"/><text fill="#000000" font-family="Arial" font-size="14" lengthAdjust="spacing" textLength="118" x="1546.5" y="1224.7813">HashingEmbedder</text><rect fill="#FFFFFF" height="1038.5034" style="stroke:#3F4E5E;stroke-width:1.0;" width="10" x="166" y="149.146"/><rect fill="#FFFFFF" height="980.606" style="stroke:#3F4E5E;stroke-width:1.0;" width="10" x="387" y="178.0947"/><rect fill="#FFFFFF" height="255.2388" style="stroke:#3F4E5E;stroke-width:1.0;" width="10" x="701" y="288.8896"/><rect fill="#FFFFFF" height="293.4873" style="stroke:#3F4E5E;stroke-width:1.0;" width="10" x="1297.5" y="757.7183"/><polygon fill="#3F4E5E" points="154,145.146,164,149.146,154,153.146,158,149.146" style="stroke:#3F4E5E;stroke-width:1.0;"/><line style="stroke:#3F4E5E;stroke-width:1.0;" x1="50" x2="160" y1="149.146" y2="149.146"/><text fill="#000000" font-family="Arial" font-size="13" lengthAdjust="spacing" textLength="79" x="57" y="144.3911">POST /ingest</text><polygon fill="#3F4E5E" points="375,174.0947,385,178.0947,375,182.0947,379,178.0947" style="stroke:#3F4E5E;stroke-width:1.0;"/><line style="stroke:#3F4E5E;stroke-width:1.0;" x1="176" x2="381" y1="178.0947" y2="178.0947"/><text fill="#000000" font-family="Arial" font-size="13" lengthAdjust="spacing" textLength="192" x="183" y="173.3398">run(source_ids, limit, rebuild_rag)</text><polygon fill="#3F4E5E" points="560,203.0435,570,207.0435,560,211.0435,564,207.0435" style="stroke:#3F4E5E;stroke-width:1.0;"/><line style="stroke:#3F4E5E;stroke-width:1.0;" x1="397" x2="566" y1="207.0435" y2="207.0435"/><text fill="#000000" font-family="Arial" font-size="13" lengthAdjust="spacing" textLength="142" x="404" y="202.2886">get_sources(source_ids)</text><polygon fill="#3F4E5E" points="408,231.9922,398,235.9922,408,239.9922,404,235.9922" style="stroke:#3F4E5E;stroke-width:1.0;"/><line style="stroke:#3F4E5E;stroke-width:1.0;stroke-dasharray:2.0,2.0;" x1="402" x2="571" y1="235.9922" y2="235.9922"/><text fill="#000000" font-family="Arial" font-size="13" lengthAdjust="spacing" textLength="151" x="414" y="231.2373">enabled source definitions</text><path d="M311,250.9922 L384,250.9922 L384,257.9409 L374,267.9409 L311,267.9409 L311,250.9922 " fill="#EEEEEE" style="stroke:#000000;stroke-width:1.5;"/><rect fill="none" height="293.1362" style="stroke:#000000;stroke-width:1.5;" width="648" x="311" y="250.9922"/><text fill="#000000" font-family="Arial" font-size="13" font-weight="bold" lengthAdjust="spacing" textLength="28" x="326" y="264.186">loop</text><text fill="#000000" font-family="Arial" font-size="11" font-weight="bold" lengthAdjust="spacing" textLength="154" x="399" y="263.3101">[For each configured source]</text><polygon fill="#3F4E5E" points="689,284.8896,699,288.8896,689,292.8896,693,288.8896" style="stroke:#3F4E5E;stroke-width:1.0;"/><line style="stroke:#3F4E5E;stroke-width:1.0;" x1="397" x2="695" y1="288.8896" y2="288.8896"/><text fill="#000000" font-family="Arial" font-size="13" lengthAdjust="spacing" textLength="82" x="404" y="284.1348">scrape source</text><polygon fill="#3F4E5E" points="880,313.8384,890,317.8384,880,321.8384,884,317.8384" style="stroke:#3F4E5E;stroke-width:1.0;"/><line style="stroke:#3F4E5E;stroke-width:1.0;" x1="711" x2="886" y1="317.8384" y2="317.8384"/><text fill="#000000" font-family="Arial" font-size="13" lengthAdjust="spacing" textLength="123" x="718" y="313.0835">HTTP GET feed URL</text><path d="M321,332.8384 L381,332.8384 L381,339.7871 L371,349.7871 L321,349.7871 L321,332.8384 " fill="#EEEEEE" style="stroke:#000000;stroke-width:1.5;"/><rect fill="none" height="204.29" style="stroke:#000000;stroke-width:1.5;" width="628" x="321" y="332.8384"/><text fill="#000000" font-family="Arial" font-size="13" font-weight="bold" lengthAdjust="spacing" textLength="15" x="336" y="346.0322">alt</text><text fill="#000000" font-family="Arial" font-size="11" font-weight="bold" lengthAdjust="spacing" textLength="130" x="396" y="345.1563">[Feed request succeeds]</text><polygon fill="#3F4E5E" points="722,366.7358,712,370.7358,722,374.7358,718,370.7358" style="stroke:#3F4E5E;stroke-width:1.0;"/><line style="stroke:#3F4E5E;stroke-width:1.0;stroke-dasharray:2.0,2.0;" x1="716" x2="891" y1="370.7358" y2="370.7358"/><text fill="#000000" font-family="Arial" font-size="13" lengthAdjust="spacing" textLength="108" x="728" y="365.981">RSS or Atom XML</text><line style="stroke:#3F4E5E;stroke-width:1.0;" x1="711" x2="753" y1="414.6333" y2="414.6333"/><line style="stroke:#3F4E5E;stroke-width:1.0;" x1="753" x2="753" y1="414.6333" y2="427.6333"/><line style="stroke:#3F4E5E;stroke-width:1.0;" x1="712" x2="753" y1="427.6333" y2="427.6333"/><polygon fill="#3F4E5E" points="722,423.6333,712,427.6333,722,431.6333,718,427.6333" style="stroke:#3F4E5E;stroke-width:1.0;"/><text fill="#000000" font-family="Arial" font-size="13" lengthAdjust="spacing" textLength="96" x="718" y="394.9297">Detect feed type</text><text fill="#000000" font-family="Arial" font-size="13" lengthAdjust="spacing" textLength="162" x="718" y="409.8784">Parse and normalize entries</text><polygon fill="#3F4E5E" points="408,452.582,398,456.582,408,460.582,404,456.582" style="stroke:#3F4E5E;stroke-width:1.0;"/><line style="stroke:#3F4E5E;stroke-width:1.0;stroke-dasharray:2.0,2.0;" x1="402" x2="700" y1="456.582" y2="456.582"/><text fill="#000000" font-family="Arial" font-size="13" lengthAdjust="spacing" textLength="76" x="414" y="451.8271">FeedItem list</text><line style="stroke:#000000;stroke-width:1.0;stroke-dasharray:2.0,2.0;" x1="321" x2="949" y1="465.582" y2="465.582"/><text fill="#000000" font-family="Arial" font-size="11" font-weight="bold" lengthAdjust="spacing" textLength="102" x="326" y="475.8999">[Feed request fails]</text><polygon fill="#3F4E5E" points="722,496.1797,712,500.1797,722,504.1797,718,500.1797" style="stroke:#3F4E5E;stroke-width:1.0;"/><line style="stroke:#3F4E5E;stroke-width:1.0;stroke-dasharray:2.0,2.0;" x1="716" x2="891" y1="500.1797" y2="500.1797"/><text fill="#000000" font-family="Arial" font-size="13" lengthAdjust="spacing" textLength="130" x="728" y="495.4248">Timeout or HTTP error</text><polygon fill="#3F4E5E" points="408,525.1284,398,529.1284,408,533.1284,404,529.1284" style="stroke:#3F4E5E;stroke-width:1.0;"/><line style="stroke:#3F4E5E;stroke-width:1.0;stroke-dasharray:2.0,2.0;" x1="402" x2="700" y1="529.1284" y2="529.1284"/><text fill="#000000" font-family="Arial" font-size="13" lengthAdjust="spacing" textLength="71" x="414" y="524.3735">Source error</text><path d="M321,558.1284 L394,558.1284 L394,565.0771 L384,575.0771 L321,575.0771 L321,558.1284 " fill="#EEEEEE" style="stroke:#000000;stroke-width:1.5;"/><rect fill="none" height="147.6924" style="stroke:#000000;stroke-width:1.5;" width="803" x="321" y="558.1284"/><text fill="#000000" font-family="Arial" font-size="13" font-weight="bold" lengthAdjust="spacing" textLength="28" x="336" y="571.3223">loop</text><text fill="#000000" font-family="Arial" font-size="11" font-weight="bold" lengthAdjust="spacing" textLength="187" x="409" y="570.4463">[For each scraped item within limit]</text><polygon fill="#3F4E5E" points="973,592.0259,983,596.0259,973,600.0259,977,596.0259" style="stroke:#3F4E5E;stroke-width:1.0;"/><line style="stroke:#3F4E5E;stroke-width:1.0;" x1="397" x2="979" y1="596.0259" y2="596.0259"/><text fill="#000000" font-family="Arial" font-size="13" lengthAdjust="spacing" textLength="165" x="404" y="591.271">classify_text(title, summary)</text><polygon fill="#3F4E5E" points="408,635.9233,398,639.9233,408,643.9233,404,639.9233" style="stroke:#3F4E5E;stroke-width:1.0;"/><line style="stroke:#3F4E5E;stroke-width:1.0;stroke-dasharray:2.0,2.0;" x1="402" x2="984" y1="639.9233" y2="639.9233"/><text fill="#000000" font-family="Arial" font-size="13" lengthAdjust="spacing" textLength="125" x="414" y="620.2197">category, confidence,</text><text fill="#000000" font-family="Arial" font-size="13" lengthAdjust="spacing" textLength="126" x="414" y="635.1685">effective date, impact</text><polygon fill="#3F4E5E" points="1060.5,664.8721,1070.5,668.8721,1060.5,672.8721,1064.5,668.8721" style="stroke:#3F4E5E;stroke-width:1.0;"/><line style="stroke:#3F4E5E;stroke-width:1.0;" x1="397" x2="1066.5" y1="668.8721" y2="668.8721"/><text fill="#000000" font-family="Arial" font-size="13" lengthAdjust="spacing" textLength="121" x="404" y="664.1172">upsert_article(article)</text><polygon fill="#3F4E5E" points="408,693.8208,398,697.8208,408,701.8208,404,697.8208" style="stroke:#3F4E5E;stroke-width:1.0;"/><line style="stroke:#3F4E5E;stroke-width:1.0;stroke-dasharray:2.0,2.0;" x1="402" x2="1071.5" y1="697.8208" y2="697.8208"/><text fill="#000000" font-family="Arial" font-size="13" lengthAdjust="spacing" textLength="52" x="414" y="693.0659">article_id</text><path d="M321,719.8208 L381,719.8208 L381,726.7695 L371,736.7695 L321,736.7695 L321,719.8208 " fill="#EEEEEE" style="stroke:#000000;stroke-width:1.5;"/><rect fill="none" height="395.9824" style="stroke:#000000;stroke-width:1.5;" width="1380.5" x="321" y="719.8208"/><text fill="#000000" font-family="Arial" font-size="13" font-weight="bold" lengthAdjust="spacing" textLength="15" x="336" y="733.0146">alt</text><text fill="#000000" font-family="Arial" font-size="11" font-weight="bold" lengthAdjust="spacing" textLength="104" x="396" y="732.1387">[rebuild_rag is true]</text><polygon fill="#3F4E5E" points="1285.5,753.7183,1295.5,757.7183,1285.5,761.7183,1289.5,757.7183" style="stroke:#3F4E5E;stroke-width:1.0;"/><line style="stroke:#3F4E5E;stroke-width:1.0;" x1="397" x2="1291.5" y1="757.7183" y2="757.7183"/><text fill="#000000" font-family="Arial" font-size="13" lengthAdjust="spacing" textLength="84" x="404" y="752.9634">rebuild_index()</text><polygon fill="#3F4E5E" points="1083.5,782.667,1073.5,786.667,1083.5,790.667,1079.5,786.667" style="stroke:#3F4E5E;stroke-width:1.0;"/><line style="stroke:#3F4E5E;stroke-width:1.0;" x1="1077.5" x2="1296.5" y1="786.667" y2="786.667"/><text fill="#000000" font-family="Arial" font-size="13" lengthAdjust="spacing" textLength="74" x="1089.5" y="781.9121">list_articles()</text><polygon fill="#3F4E5E" points="1285.5,811.6157,1295.5,815.6157,1285.5,819.6157,1289.5,815.6157" style="stroke:#3F4E5E;stroke-width:1.0;"/><line style="stroke:#3F4E5E;stroke-width:1.0;stroke-dasharray:2.0,2.0;" x1="1072.5" x2="1291.5" y1="815.6157" y2="815.6157"/><text fill="#000000" font-family="Arial" font-size="13" lengthAdjust="spacing" textLength="82" x="1079.5" y="810.8608">stored articles</text><path d="M1021,830.6157 L1094,830.6157 L1094,837.5645 L1084,847.5645 L1021,847.5645 L1021,830.6157 " fill="#EEEEEE" style="stroke:#000000;stroke-width:1.5;"/><rect fill="none" height="192.6411" style="stroke:#000000;stroke-width:1.5;" width="670.5" x="1021" y="830.6157"/><text fill="#000000" font-family="Arial" font-size="13" font-weight="bold" lengthAdjust="spacing" textLength="28" x="1036" y="843.8096">loop</text><text fill="#000000" font-family="Arial" font-size="11" font-weight="bold" lengthAdjust="spacing" textLength="89" x="1109" y="842.9336">[For each article]</text><polygon fill="#3F4E5E" points="1483.5,864.5132,1493.5,868.5132,1483.5,872.5132,1487.5,868.5132" style="stroke:#3F4E5E;stroke-width:1.0;"/><line style="stroke:#3F4E5E;stroke-width:1.0;" x1="1307.5" x2="1489.5" y1="868.5132" y2="868.5132"/><text fill="#000000" font-family="Arial" font-size="13" lengthAdjust="spacing" textLength="164" x="1314.5" y="863.7583">chunk_text(searchable_text)</text><polygon fill="#3F4E5E" points="1318.5,893.4619,1308.5,897.4619,1318.5,901.4619,1314.5,897.4619" style="stroke:#3F4E5E;stroke-width:1.0;"/><line style="stroke:#3F4E5E;stroke-width:1.0;stroke-dasharray:2.0,2.0;" x1="1312.5" x2="1494.5" y1="897.4619" y2="897.4619"/><text fill="#000000" font-family="Arial" font-size="13" lengthAdjust="spacing" textLength="68" x="1324.5" y="892.707">text chunks</text><path d="M1253.5,912.4619 L1326.5,912.4619 L1326.5,919.4106 L1316.5,929.4106 L1253.5,929.4106 L1253.5,912.4619 " fill="#EEEEEE" style="stroke:#000000;stroke-width:1.5;"/><rect fill="none" height="74.8462" style="stroke:#000000;stroke-width:1.5;" width="428" x="1253.5" y="912.4619"/><text fill="#000000" font-family="Arial" font-size="13" font-weight="bold" lengthAdjust="spacing" textLength="28" x="1268.5" y="925.6558">loop</text><text fill="#000000" font-family="Arial" font-size="11" font-weight="bold" lengthAdjust="spacing" textLength="90" x="1341.5" y="924.7798">[For each chunk]</text><polygon fill="#3F4E5E" points="1593.5,946.3594,1603.5,950.3594,1593.5,954.3594,1597.5,950.3594" style="stroke:#3F4E5E;stroke-width:1.0;"/><line style="stroke:#3F4E5E;stroke-width:1.0;" x1="1307.5" x2="1599.5" y1="950.3594" y2="950.3594"/><text fill="#000000" font-family="Arial" font-size="13" lengthAdjust="spacing" textLength="82" x="1314.5" y="945.6045">embed(chunk)</text><polygon fill="#3F4E5E" points="1318.5,975.3081,1308.5,979.3081,1318.5,983.3081,1314.5,979.3081" style="stroke:#3F4E5E;stroke-width:1.0;"/><line style="stroke:#3F4E5E;stroke-width:1.0;stroke-dasharray:2.0,2.0;" x1="1312.5" x2="1604.5" y1="979.3081" y2="979.3081"/><text fill="#000000" font-family="Arial" font-size="13" lengthAdjust="spacing" textLength="36" x="1324.5" y="974.5532">vector</text><polygon fill="#3F4E5E" points="1083.5,1011.2568,1073.5,1015.2568,1083.5,1019.2568,1079.5,1015.2568" style="stroke:#3F4E5E;stroke-width:1.0;"/><line style="stroke:#3F4E5E;stroke-width:1.0;" x1="1077.5" x2="1296.5" y1="1015.2568" y2="1015.2568"/><text fill="#000000" font-family="Arial" font-size="13" lengthAdjust="spacing" textLength="201" x="1089.5" y="1010.502">replace_chunks(article_id, chunks)</text><polygon fill="#3F4E5E" points="408,1047.2056,398,1051.2056,408,1055.2056,404,1051.2056" style="stroke:#3F4E5E;stroke-width:1.0;"/><line style="stroke:#3F4E5E;stroke-width:1.0;stroke-dasharray:2.0,2.0;" x1="402" x2="1301.5" y1="1051.2056" y2="1051.2056"/><text fill="#000000" font-family="Arial" font-size="13" lengthAdjust="spacing" textLength="142" x="414" y="1046.4507">article and chunk counts</text><line style="stroke:#000000;stroke-width:1.0;stroke-dasharray:2.0,2.0;" x1="321" x2="1701.5" y1="1060.2056" y2="1060.2056"/><text fill="#000000" font-family="Arial" font-size="11" font-weight="bold" lengthAdjust="spacing" textLength="108" x="326" y="1070.5234">[rebuild_rag is false]</text><line style="stroke:#3F4E5E;stroke-width:1.0;" x1="397" x2="439" y1="1094.8032" y2="1094.8032"/><line style="stroke:#3F4E5E;stroke-width:1.0;" x1="439" x2="439" y1="1094.8032" y2="1107.8032"/><line style="stroke:#3F4E5E;stroke-width:1.0;" x1="398" x2="439" y1="1107.8032" y2="1107.8032"/><polygon fill="#3F4E5E" points="408,1103.8032,398,1107.8032,408,1111.8032,404,1107.8032" style="stroke:#3F4E5E;stroke-width:1.0;"/><text fill="#000000" font-family="Arial" font-size="13" lengthAdjust="spacing" textLength="114" x="404" y="1090.0483">Keep existing index</text><polygon fill="#3F4E5E" points="187,1154.7007,177,1158.7007,187,1162.7007,183,1158.7007" style="stroke:#3F4E5E;stroke-width:1.0;"/><line style="stroke:#3F4E5E;stroke-width:1.0;stroke-dasharray:2.0,2.0;" x1="181" x2="391" y1="1158.7007" y2="1158.7007"/><text fill="#000000" font-family="Arial" font-size="13" lengthAdjust="spacing" textLength="91" x="193" y="1138.9971">IngestionReport</text><text fill="#000000" font-family="Arial" font-size="13" lengthAdjust="spacing" textLength="183" x="193" y="1153.9458">scraped, saved, indexed, errors</text><polygon fill="#3F4E5E" points="61,1183.6494,51,1187.6494,61,1191.6494,57,1187.6494" style="stroke:#3F4E5E;stroke-width:1.0;"/><line style="stroke:#3F4E5E;stroke-width:1.0;stroke-dasharray:2.0,2.0;" x1="55" x2="170" y1="1187.6494" y2="1187.6494"/><text fill="#000000" font-family="Arial" font-size="13" lengthAdjust="spacing" textLength="92" x="67" y="1182.8945">JSON response</text><!--SRC=[XLPDRnit4BtlhnWa5mcGaKCI5CsXWEfQZbirLYKLwS60G2rd9S9SSajoRIj5_tjdoFrEsXuCSNOUPsRdlPbrK44ZB4zEmMSHyZDSmMSymfqveG_A6jZXdpMQ7BFCFofJ2ITAE8hyyUHiRUIrrTR1yra57FZzMKZxhCm92g7zq2En4BKEAsl29r5IOgU47jviii5V6P3JsUUKuVNRrRkRzpVqSAqAN2k3FredqKsz6-62obKbJFX_mEGjNg- -Mts_kix-pZAH1tgmbAKooWSds18-FSYgFWIyMWaVbfixeBzN4RAv6mEwJcvKXPeAZx3M66DtjdRqxbiySTPBHBR66BdTxTuiWorXbpjHeOlGvZn6tXS5dOM65QACC3wCCTTQUAyArSJfpKoA88x28zNssvf8tb4dqXl4qpZCskP2RvUtgUxbxIJ9kJQFROPq7WC-2dycpToKHvIo0RP6biNUmzKFt67u09lxtHxUgDXSfaizYO2n-na32DUscC2kDZCVUtjGqYz0grA51JWyrahBWnEdUH-ZeoRh8b2qbWQATi9mID7y8Eeywo1Nu-nen56ZX8Jb4I1LiI9ybcbhArYHkb3GxENM5EfKkmxCWXqKqH1CCNqyzQYk-bO3zAn5qqMcd6vztEytS7kpXuBjtxThlgb3SZiUFH_0rtbEjYSV9C_LA3L93tWuM7r__BgEi46g7lWJ1in3oXKk5JuO6ZwIaZ0IZ7MbqEeBKdU2K-Z7OSODv2Bk0fR46v4DWBHJnZKNGkb_BNYlIhHruA9Z0v3MYlklVCqOjZWqajifyQicHy-OmaIC1CNrFgj0Yavocr3PpnWbp9DnEGHy2RF0Atb1F9IbS9SvNHo09wNcLCx9kiiYQKVoxbmy62mAv699RGHOW2ehAZwRoeb7c8BKbKSN3d4MDSwQNqwS49ESZPz4dnh02XgC4YWFmTLJxT8-u4biSCf8V9dDXyhbXK4sumQrCULjPNushYc5z6pBjYhFCSQKD9x8U1EzsJ_SG3wbldiKBZ_ph4Px7Y-qo3uV-zArc6kQBNhYyovRkyHu5_1n5Z7p1jHv-nHFoD-Vw6_4zrLV75PQqEP9XSnwJXPDRVDUkV7gDpcCinZnf9_Q13_MELCIXsr2R_ggZ_aT1Fy5iG9y8URuNu18TL9AZ-_sUFTvt69bNNWmpG2H_iKJ_yJhV8ZZwBD1UVscZYkVOyQFn0VuUNV_YOhs5IrP75xX3yG_]--></g></svg>