<?xml version="1.0" encoding="us-ascii" standalone="no"?><svg xmlns="http://www.w3.org/2000/svg" xmlns:xlink="http://www.w3.org/1999/xlink" contentStyleType="text/css" height="965px" preserveAspectRatio="none" style="width:1252px;height:965px;background:#FFFFFF;" version="1.1" viewBox="0 0 1252 965" width="1252px" zoomAndPan="magnify"><defs/><g><text fill="#000000" font-family="Arial" font-size="14" font-weight="bold" lengthAdjust="spacing" textLength="335" x="459.5" y="28.1318">Agri Watch - RAG Question Answering Sequence</text><rect fill="#FFFFFF" height="637.521" style="stroke:#3F4E5E;stroke-width:1.0;" width="10" x="139" y="164.0947"/><rect fill="#FFFFFF" height="587.6235" style="stroke:#3F4E5E;stroke-width:1.0;" width="10" x="347" y="193.0435"/><rect fill="#FFFFFF" height="86.8462" style="stroke:#3F4E5E;stroke-width:1.0;" width="10" x="988" y="607.9233"/><rect fill="#FFFFFF" height="28.9487" style="stroke:#3F4E5E;stroke-width:1.0;" width="10" x="1163" y="636.8721"/><rect fill="none" height="320.085" style="stroke:#000000;stroke-width:1.5;" width="1156" x="89" y="453.582"/><line style="stroke:#3F4E5E;stroke-width:0.5;stroke-dasharray:5.0,5.0;" x1="23" x2="23" y1="118.1973" y2="884.4619"/><line style="stroke:#3F4E5E;stroke-width:0.5;stroke-dasharray:5.0,5.0;" x1="144" x2="144" y1="118.1973" y2="884.4619"/><line style="stroke:#3F4E5E;stroke-width:0.5;stroke-dasharray:5.0,5.0;" x1="352" x2="352" y1="118.1973" y2="884.4619"/><line style="stroke:#3F4E5E;stroke-width:0.5;stroke-dasharray:5.0,5.0;" x1="541" x2="541" y1="118.1973" y2="884.4619"/><line style="stroke:#3F4E5E;stroke-width:0.5;stroke-dasharray:5.0,5.0;" x1="658" x2="658" y1="118.1973" y2="884.4619"/><line style="stroke:#3F4E5E;stroke-width:0.5;stroke-dasharray:5.0,5.0;" x1="770" x2="770" y1="118.1973" y2="884.4619"/><line style="stroke:#3F4E5E;stroke-width:0.5;stroke-dasharray:5.0,5.0;" x1="892" x2="892" y1="118.1973" y2="884.4619"/><line style="stroke:#3F4E5E;stroke-width:0.5;stroke-dasharray:5.0,5.0;" x1="993" x2="993" y1="118.1973" y2="884.4619"/><line style="stroke:#3F4E5E;stroke-width:0.5;stroke-dasharray:5.0,5.0;" x1="1168" x2="1168" y1="118.1973" y2="884.4619"/><text fill="#000000" font-family="Arial" font-size="14" lengthAdjust="spacing" textLength="30" x="5" y="115.2305">User</text><ellipse cx="23" cy="50.5986" fill="#E2E2F0" rx="8" ry="8" style="stroke:#181818;stroke-width:0.5;"/><path d="M23,58.5986 L23,85.5986 M10,66.5986 L36,66.5986 M23,85.5986 L10,100.5986 M23,85.5986 L36,100.5986 " fill="none" style="stroke:#181818;stroke-width:0.5;"/><text fill="#000000" font-family="Arial" font-size="14" lengthAdjust="spacing" textLength="30" x="5" y="896.5938">User</text><ellipse cx="23" cy="908.0605" fill="#E2E2F0" rx="8" ry="8" style="stroke:#181818;stroke-width:0.5;"/><path d="M23,916.0605 L23,943.0605 M10,924.0605 L36,924.0605 M23,943.0605 L10,958.0605 M23,943.0605 L36,958.0605 " fill="none" style="stroke:#181818;stroke-width:0.5;"/><rect fill="#F7F9FC" height="30.0986" rx="2.5" ry="2.5" style="stroke:#3F4E5E;stroke-width:0.5;" width="90" x="99" y="87.0986"/><text fill="#000000" font-family="Arial" font-size="14" lengthAdjust="spacing" textLength="76" x="106" y="107.2305">FastAPI API</text><rect fill="#F7F9FC" height="30.0986" rx="2.5" ry="2.5" style="stroke:#3F4E5E;stroke-width:0.5;" width="90" x="99" y="883.4619"/><text fill="#000000" font-family="Arial" font-size="14" lengthAdjust="spacing" textLength="76" x="106" y="903.5938">FastAPI API</text><rect fill="#F7F9FC" height="30.0986" rx="2.5" ry="2.5" style="stroke:#3F4E5E;stroke-width:0.5;" width="78" x="313" y="87.0986"/><text fill="#000000" font-family="Arial" font-size="14" lengthAdjust="spacing" textLength="64" x="320" y="107.2305">LocalRAG</text><rect fill="#F7F9FC" height="30.0986" rx="2.5" ry="2.5" style="stroke:#3F4E5E;stroke-width:0.5;" width="78" x="313" y="883.4619"/><text fill="#000000" font-family="Arial" font-size="14" lengthAdjust="spacing" textLength="64" x="320" y="903.5938">LocalRAG</text><rect fill="#F7F9FC" height="30.0986" rx="2.5" ry="2.5" style="stroke:#3F4E5E;stroke-width:0.5;" width="132" x="475" y="87.0986"/><text fill="#000000" font-family="Arial" font-size="14" lengthAdjust="spacing" textLength="118" x="482" y="107.2305">HashingEmbedder</text><rect fill="#F7F9FC" height="30.0986" rx="2.5" ry="2.5" style="stroke:#3F4E5E;stroke-width:0.5;" width="132" x="475" y="883.4619"/><text fill="#000000" font-family="Arial" font-size="14" lengthAdjust="spacing" textLength="118" x="482" y="903.5938">HashingEmbedder</text><text fill="#000000" font-family="Arial" font-size="14" lengthAdjust="spacing" textLength="77" x="617" y="115.2305">SQLiteStore</text><path d="M640.5,66.0986 C640.5,56.0986 658.5,56.0986 658.5,56.0986 C658.5,56.0986 676.5,56.0986 676.5,66.0986 L676.5,92.0986 C676.5,102.0986 658.5,102.0986 658.5,102.0986 C658.5,102.0986 640.5,102.0986 640.5,92.0986 L640.5,66.0986 " fill="#E2E2F0" style="stroke:#181818;stroke-width:1.5;"/><path d="M640.5,66.0986 C640.5,76.0986 658.5,76.0986 658.5,76.0986 C658.5,76.0986 676.5,76.0986 676.5,66.0986 " fill="none" style="stroke:#181818;stroke-width:1.5;"/><text fill="#000000" font-family="Arial" font-size="14" lengthAdjust="spacing" textLength="77" x="617" y="896.5938">SQLiteStore</text><path d="M640.5,909.5605 C640.5,899.5605 658.5,899.5605 658.5,899.5605 C658.5,899.5605 676.5,899.5605 676.5,909.5605 L676.5,935.5605 C676.5,945.5605 658.5,945.5605 658.5,945.5605 C658.5,945.5605 640.5,945.5605 640.5,935.5605 L640.5,909.5605 " fill="#E2E2F0" style="stroke:#181818;stroke-width:1.5;"/><path d="M640.5,909.5605 C640.5,919.5605 658.5,919.5605 658.5,919.5605 C658.5,919.5605 676.5,919.5605 676.5,909.5605 " fill="none" style="stroke:#181818;stroke-width:1.5;"/><rect fill="#F7F9FC" height="30.0986" rx="2.5" ry="2.5" style="stroke:#3F4E5E;stroke-width:0.5;" width="120" x="710" y="87.0986"/><text fill="#000000" font-family="Arial" font-size="14" lengthAdjust="spacing" textLength="106" x="717" y="107.2305">Similarity Search</text><rect fill="#F7F9FC" height="30.0986" rx="2.5" ry="2.5" style="stroke:#3F4E5E;stroke-width:0.5;" width="120" x="710" y="883.4619"/><text fill="#000000" font-family="Arial" font-size="14" lengthAdjust="spacing" textLength="106" x="717" y="903.5938">Similarity Search</text><rect fill="#F7F9FC" height="30.0986" rx="2.5" ry="2.5" style="stroke:#3F4E5E;stroke-width:0.5;" width="104" x="840" y="87.0986"/><text fill="#000000" font-family="Arial" font-size="14" lengthAdjust="spacing" textLength="90" x="847" y="107.2305">PromptBuilder</text><rect fill="#F7F9FC" height="30.0986" rx="2.5" ry="2.5" style="stroke:#3F4E5E;stroke-width:0.5;" width="104" x="840" y="883.4619"/><text fill="#000000" font-family="Arial" font-size="14" lengthAdjust="spacing" textLength="90" x="847" y="903.5938">PromptBuilder</text><rect fill="#F7F9FC" height="30.0986" rx="2.5" ry="2.5" style="stroke:#3F4E5E;stroke-width:0.5;" width="78" x="954" y="87.0986"/><text fill="#000000" font-family="Arial" font-size="14" lengthAdjust="spacing" textLength="64" x="961" y="107.2305">LLMClient</text><rect fill="#F7F9FC" height="30.0986" rx="2.5" ry="2.5" style="stroke:#3F4E5E;stroke-width:0.5;" width="78" x="954" y="883.4619"/><text fill="#000000" font-family="Arial" font-size="14" lengthAdjust="spacing" textLength="64" x="961" y="903.5938">LLMClient</text><rect fill="#F7F9FC" height="30.0986" rx="2.5" ry="2.5" style="stroke:#3F4E5E;stroke-width:0.5;" width="134" x="1101" y="87.0986"/><text fill="#000000" font-family="Arial" font-size="14" lengthAdjust="spacing" textLength="120" x="1108" y="107.2305">Local Llama Model</text><rect fill="#F7F9FC" height="30.0986" rx="2.5" ry="2.5" style="stroke:#3F4E5E;stroke-width:0.5;" width="134" x="1101" y="883.4619"/><text fill="#000000" font-family="Arial" font-size="14" lengthAdjust="spacing" textLength="120" x="1108" y="903.5938">Local Llama Model</text><rect fill="#FFFFFF" height="637.521" style="stroke:#3F4E5E;stroke-width:1.0;" width="10" x="139" y="164.0947"/><rect fill="#FFFFFF" height="587.6235" style="stroke:#3F4E5E;stroke-width:1.0;" width="10" x="347" y="193.0435"/><rect fill="#FFFFFF" height="86.8462" style="stroke:#3F4E5E;stroke-width:1.0;" width="10" x="988" y="607.9233"/><rect fill="#FFFFFF" height="28.9487" style="stroke:#3F4E5E;stroke-width:1.0;" width="10" x="1163" y="636.8721"/><polygon fill="#3F4E5E" points="127,160.0947,137,164.0947,127,168.0947,131,164.0947" style="stroke:#3F4E5E;stroke-width:1.0;"/><line style="stroke:#3F4E5E;stroke-width:1.0;" x1="23" x2="133" y1="164.0947" y2="164.0947"/><text fill="#000000" font-family="Arial" font-size="13" lengthAdjust="spacing" textLength="87" x="30" y="144.3911">POST /rag/ask</text><text fill="#000000" font-family="Arial" font-size="13" lengthAdjust="spacing" textLength="93" x="30" y="159.3398">query and top_k</text><polygon fill="#3F4E5E" points="335,189.0435,345,193.0435,335,197.0435,339,193.0435" style="stroke:#3F4E5E;stroke-width:1.0;"/><line style="stroke:#3F4E5E;stroke-width:1.0;" x1="149" x2="341" y1="193.0435" y2="193.0435"/><text fill="#000000" font-family="Arial" font-size="13" lengthAdjust="spacing" textLength="121" x="156" y="188.2886">answer(query, top_k)</text><line style="stroke:#3F4E5E;stroke-width:1.0;" x1="357" x2="399" y1="221.9922" y2="221.9922"/><line style="stroke:#3F4E5E;stroke-width:1.0;" x1="399" x2="399" y1="221.9922" y2="234.9922"/><line style="stroke:#3F4E5E;stroke-width:1.0;" x1="358" x2="399" y1="234.9922" y2="234.9922"/><polygon fill="#3F4E5E" points="368,230.9922,358,234.9922,368,238.9922,364,234.9922" style="stroke:#3F4E5E;stroke-width:1.0;"/><text fill="#000000" font-family="Arial" font-size="13" lengthAdjust="spacing" textLength="165" x="364" y="217.2373">Infer optional category filters</text><polygon fill="#3F4E5E" points="529,259.9409,539,263.9409,529,267.9409,533,263.9409" style="stroke:#3F4E5E;stroke-width:1.0;"/><line style="stroke:#3F4E5E;stroke-width:1.0;" x1="357" x2="535" y1="263.9409" y2="263.9409"/><text fill="#000000" font-family="Arial" font-size="13" lengthAdjust="spacing" textLength="79" x="364" y="259.186">embed(query)</text><polygon fill="#3F4E5E" points="368,288.8896,358,292.8896,368,296.8896,364,292.8896" style="stroke:#3F4E5E;stroke-width:1.0;"/><line style="stroke:#3F4E5E;stroke-width:1.0;stroke-dasharray:2.0,2.0;" x1="362" x2="540" y1="292.8896" y2="292.8896"/><text fill="#000000" font-family="Arial" font-size="13" lengthAdjust="spacing" textLength="72" x="374" y="288.1348">query vector</text><polygon fill="#3F4E5E" points="646.5,317.8384,656.5,321.8384,646.5,325.8384,650.5,321.8384" style="stroke:#3F4E5E;stroke-width:1.0;"/><line style="stroke:#3F4E5E;stroke-width:1.0;" x1="357" x2="652.5" y1="321.8384" y2="321.8384"/><text fill="#000000" font-family="Arial" font-size="13" lengthAdjust="spacing" textLength="74" x="364" y="317.0835">list_chunks()</text><polygon fill="#3F4E5E" points="368,361.7358,358,365.7358,368,369.7358,364,365.7358" style="stroke:#3F4E5E;stroke-width:1.0;"/><line style="stroke:#3F4E5E;stroke-width:1.0;stroke-dasharray:2.0,2.0;" x1="362" x2="657.5" y1="365.7358" y2="365.7358"/><text fill="#000000" font-family="Arial" font-size="13" lengthAdjust="spacing" textLength="147" x="374" y="346.0322">chunks, article metadata,</text><text fill="#000000" font-family="Arial" font-size="13" lengthAdjust="spacing" textLength="108" x="374" y="360.981">and stored vectors</text><polygon fill="#3F4E5E" points="758,405.6333,768,409.6333,758,413.6333,762,409.6333" style="stroke:#3F4E5E;stroke-width:1.0;"/><line style="stroke:#3F4E5E;stroke-width:1.0;" x1="357" x2="764" y1="409.6333" y2="409.6333"/><text fill="#000000" font-family="Arial" font-size="13" lengthAdjust="spacing" textLength="94" x="364" y="389.9297">cosine similarity</text><text fill="#000000" font-family="Arial" font-size="13" lengthAdjust="spacing" textLength="121" x="364" y="404.8784">and category filtering</text><polygon fill="#3F4E5E" points="368,434.582,358,438.582,368,442.582,364,438.582" style="stroke:#3F4E5E;stroke-width:1.0;"/><line style="stroke:#3F4E5E;stroke-width:1.0;stroke-dasharray:2.0,2.0;" x1="362" x2="769" y1="438.582" y2="438.582"/><text fill="#000000" font-family="Arial" font-size="13" lengthAdjust="spacing" textLength="126" x="374" y="433.8271">ranked top-k matches</text><path d="M89,453.582 L149,453.582 L149,460.5308 L139,470.5308 L89,470.5308 L89,453.582 " fill="#EEEEEE" style="stroke:#000000;stroke-width:1.5;"/><rect fill="none" height="320.085" style="stroke:#000000;stroke-width:1.5;" width="1156" x="89" y="453.582"/><text fill="#000000" font-family="Arial" font-size="13" font-weight="bold" lengthAdjust="spacing" textLength="15" x="104" y="466.7759">alt</text><text fill="#000000" font-family="Arial" font-size="11" font-weight="bold" lengthAdjust="spacing" textLength="116" x="164" y="465.8999">[No relevant matches]</text><polygon fill="#3F4E5E" points="160,502.4282,150,506.4282,160,510.4282,156,506.4282" style="stroke:#3F4E5E;stroke-width:1.0;"/><line style="stroke:#3F4E5E;stroke-width:1.0;stroke-dasharray:2.0,2.0;" x1="154" x2="346" y1="506.4282" y2="506.4282"/><text fill="#000000" font-family="Arial" font-size="13" lengthAdjust="spacing" textLength="129" x="166" y="486.7246">No-information answer</text><text fill="#000000" font-family="Arial" font-size="13" lengthAdjust="spacing" textLength="165" x="166" y="501.6733">empty matches and sources</text><line style="stroke:#000000;stroke-width:1.0;stroke-dasharray:2.0,2.0;" x1="89" x2="1245" y1="515.4282" y2="515.4282"/><text fill="#000000" font-family="Arial" font-size="11" font-weight="bold" lengthAdjust="spacing" textLength="137" x="94" y="525.7461">[Relevant matches found]</text><polygon fill="#3F4E5E" points="880,546.0259,890,550.0259,880,554.0259,884,550.0259" style="stroke:#3F4E5E;stroke-width:1.0;"/><line style="stroke:#3F4E5E;stroke-width:1.0;" x1="357" x2="886" y1="550.0259" y2="550.0259"/><text fill="#000000" font-family="Arial" font-size="13" lengthAdjust="spacing" textLength="160" x="364" y="545.271">Build context from matches</text><polygon fill="#3F4E5E" points="368,574.9746,358,578.9746,368,582.9746,364,578.9746" style="stroke:#3F4E5E;stroke-width:1.0;"/><line style="stroke:#3F4E5E;stroke-width:1.0;stroke-dasharray:2.0,2.0;" x1="362" x2="891" y1="578.9746" y2="578.9746"/><text fill="#000000" font-family="Arial" font-size="13" lengthAdjust="spacing" textLength="176" x="374" y="574.2197">grounded messages or prompt</text><polygon fill="#3F4E5E" points="976,603.9233,986,607.9233,976,611.9233,980,607.9233" style="stroke:#3F4E5E;stroke-width:1.0;"/><line style="stroke:#3F4E5E;stroke-width:1.0;" x1="357" x2="982" y1="607.9233" y2="607.9233"/><text fill="#000000" font-family="Arial" font-size="13" lengthAdjust="spacing" textLength="215" x="364" y="603.1685">answer_from_context(query, context)</text><polygon fill="#3F4E5E" points="1151,632.8721,1161,636.8721,1151,640.8721,1155,636.8721" style="stroke:#3F4E5E;stroke-width:1.0;"/><line style="stroke:#3F4E5E;stroke-width:1.0;" x1="998" x2="1157" y1="636.8721" y2="636.8721"/><text fill="#000000" font-family="Arial" font-size="13" lengthAdjust="spacing" textLength="146" x="1005" y="632.1172">create_chat_completion()</text><polygon fill="#3F4E5E" points="1009,661.8208,999,665.8208,1009,669.8208,1005,665.8208" style="stroke:#3F4E5E;stroke-width:1.0;"/><line style="stroke:#3F4E5E;stroke-width:1.0;stroke-dasharray:2.0,2.0;" x1="1003" x2="1167" y1="665.8208" y2="665.8208"/><text fill="#000000" font-family="Arial" font-size="13" lengthAdjust="spacing" textLength="102" x="1015" y="661.0659">generated answer</text><polygon fill="#3F4E5E" points="368,690.7695,358,694.7695,368,698.7695,364,694.7695" style="stroke:#3F4E5E;stroke-width:1.0;"/><line style="stroke:#3F4E5E;stroke-width:1.0;stroke-dasharray:2.0,2.0;" x1="362" x2="992" y1="694.7695" y2="694.7695"/><text fill="#000000" font-family="Arial" font-size="13" lengthAdjust="spacing" textLength="67" x="374" y="690.0146">answer text</text><line style="stroke:#3F4E5E;stroke-width:1.0;" x1="357" x2="399" y1="723.7183" y2="723.7183"/><line style="stroke:#3F4E5E;stroke-width:1.0;" x1="399" x2="399" y1="723.7183" y2="736.7183"/><line style="stroke:#3F4E5E;stroke-width:1.0;" x1="358" x2="399" y1="736.7183" y2="736.7183"/><polygon fill="#3F4E5E" points="368,732.7183,358,736.7183,368,740.7183,364,736.7183" style="stroke:#3F4E5E;stroke-width:1.0;"/><text fill="#000000" font-family="Arial" font-size="13" lengthAdjust="spacing" textLength="135" x="364" y="718.9634">Build unique source list</text><polygon fill="#3F4E5E" points="160,761.667,150,765.667,160,769.667,156,765.667" style="stroke:#3F4E5E;stroke-width:1.0;"/><line style="stroke:#3F4E5E;stroke-width:1.0;stroke-dasharray:2.0,2.0;" x1="154" x2="346" y1="765.667" y2="765.667"/><text fill="#000000" font-family="Arial" font-size="13" lengthAdjust="spacing" textLength="174" x="166" y="760.9121">answer, matches and sources</text><polygon fill="#3F4E5E" points="34,797.6157,24,801.6157,34,805.6157,30,801.6157" style="stroke:#3F4E5E;stroke-width:1.0;"/><line style="stroke:#3F4E5E;stroke-width:1.0;stroke-dasharray:2.0,2.0;" x1="28" x2="143" y1="801.6157" y2="801.6157"/><text fill="#000000" font-family="Arial" font-size="13" lengthAdjust="spacing" textLength="92" x="40" y="796.8608">JSON response</text><path d="M301,814.6157 L301,868.6157 L1218,868.6157 L1218,824.6157 L1208,814.6157 L301,814.6157 " fill="#FEFFDD" style="stroke:#181818;stroke-width:0.5;"/><path d="M1208,814.6157 L1208,824.6157 L1218,824.6157 L1208,814.6157 " fill="#FEFFDD" style="stroke:#181818;stroke-width:0.5;"/><text fill="#000000" font-family="Arial" font-size="13" lengthAdjust="spacing" textLength="243" x="610" y="831.8096">This diagram assumes the corrected flow:</text><text fill="#000000" font-family="Arial" font-size="13" lengthAdjust="spacing" textLength="239" x="610" y="846.7583">category filters affect retrieval, but do not</text><text fill="#000000" font-family="Arial" font-size="13" lengthAdjust="spacing" textLength="290" x="610" y="861.707">bypass local LLM generation when matches exist.</text><!--SRC=[XLHDRnit4BtpLmoSYmr8oQ4jYleGm36iDeNYE56ANWmOezrPBI4kkIMvLeoW_xsFv6hraG0z2Dhbl3SpVFDceuv6w6RZDVtDiMffJfzlVgTFWuIedQKR6tRYjTtGIluPn5QYLDXgsxFdZjPSRJVU3RQ-TSPvshKwob4yj5oxNM8tRC9nf9Q61nCNpiPxxj21rsoEcMCr-gO8GUzsfSAhdnO_t_roXyEbRcIfhRnplXP_7drW7tMbUxRn_m5djtYr-7Nns-9M_QiKLn47VmNngZyGw6B18Tuyl2VyBeX3-Zy5B5t51ahcAFvFetzmQA7ANRUM6hrbqFv5rHnvpK7eOlLf2JrNQ44o93-TPbhfJXlsEhvWGEohjW3puodomRkkZ-y6RVOLoybPtyiFjqQBZHbH7dzmCreQxfW-k5fCHeAdLDA9vc-J6dHD3nzNN-YDvyqR3jj7Ytdw5s9RKtJzqpP9gvyvIjPE9GgOoNlN02NJNMR6hC2l3lYafah02V_UDYZi-kHOz5O1jN4ercWJnOSzUAym698UIu4hDPtFfuobsMT9uv-APVaHD3h4fweTx3PSNgboUg2Mm8ooPjYjJYAdaSuURRfyIF1wJ1qEkVF44jq5c9h2DDT2ExiJpAD6og6oPxkLBEzyIrtQPa41Df7k7Nanyfm6k0zGPisdSTsxkRQDyuYdnIypUBG2YxpiINbymGs-GWB1HjFdixJKf3tQ9tyxUWpfi_5mEnlbQwG6nqUTZAZ3LSewuZATXC0RvCKQziMlX-J5dfDXdbBMfx74tZtZwnLOauD6M-Dep81SC71Itmi062vZmgXc98bnUS9ELgUCdn_ti14h7l5wx0QOMav8H_NEh4wfnLF2eSSJgnSP1wjnlN4IsO_VZRCadlruSfYGEggLDYel8DXvXw_fpzN7UtWczCxYkts4pTjg7PxSCv2WpjBTlhGwKArvapxU7CA0mL5i1Vfx3wz3biQutRKwNqxYfa4SjQBNi9APqNg8L3j24RL-wP6CJFdcGF9HvUJGNIjskfvyXGYlqyqIJzH_]--></g></svg>