<?xml version="1.0" encoding="us-ascii" standalone="no"?><svg xmlns="http://www.w3.org/2000/svg" xmlns:xlink="http://www.w3.org/1999/xlink" contentStyleType="text/css" height="936px" preserveAspectRatio="none" style="width:1936px;height:936px;background:#FFFFFF;" version="1.1" viewBox="0 0 1936 936" width="1936px" zoomAndPan="magnify"><defs/><g><text fill="#000000" font-family="Arial" font-size="14" font-weight="bold" lengthAdjust="spacing" textLength="256" x="833" y="23.1318">Agri Watch - Component Architecture</text><!--cluster FastAPI application--><g id="cluster_FastAPI application"><path d="M174.5,822.5186 L309.5,822.5186 A3.75,3.75 0 0 1 312,825.0186 L319,844.6173 L586.5,844.6173 A2.5,2.5 0 0 1 589,847.1173 L589,922.0186 A2.5,2.5 0 0 1 586.5,924.5186 L174.5,924.5186 A2.5,2.5 0 0 1 172,922.0186 L172,825.0186 A2.5,2.5 0 0 1 174.5,822.5186 " fill="#F7F9FC" style="stroke:#3F4E5E;stroke-width:1.5;"/><line style="stroke:#3F4E5E;stroke-width:1.5;" x1="172" x2="319" y1="844.6173" y2="844.6173"/><text fill="#000000" font-family="Arial" font-size="14" font-weight="bold" lengthAdjust="spacing" textLength="134" x="176" y="837.6505">FastAPI application</text></g><!--cluster Web ingestion--><g id="cluster_Web ingestion"><path d="M428.5,569.5186 L528.5,569.5186 A3.75,3.75 0 0 1 531,572.0186 L538,591.6173 L935.5,591.6173 A2.5,2.5 0 0 1 938,594.1173 L938,796.0186 A2.5,2.5 0 0 1 935.5,798.5186 L428.5,798.5186 A2.5,2.5 0 0 1 426,796.0186 L426,572.0186 A2.5,2.5 0 0 1 428.5,569.5186 " fill="#F7F9FC" style="stroke:#3F4E5E;stroke-width:1.5;"/><line style="stroke:#3F4E5E;stroke-width:1.5;" x1="426" x2="538" y1="591.6173" y2="591.6173"/><text fill="#000000" font-family="Arial" font-size="14" font-weight="bold" lengthAdjust="spacing" textLength="99" x="430" y="584.6505">Web ingestion</text></g><!--cluster RAG pipeline--><g id="cluster_RAG pipeline"><path d="M784,113.5186 L875,113.5186 A3.75,3.75 0 0 1 877.5,116.0186 L884.5,135.6173 L1386,135.6173 A2.5,2.5 0 0 1 1388.5,138.1173 L1388.5,482.0186 A2.5,2.5 0 0 1 1386,484.5186 L784,484.5186 A2.5,2.5 0 0 1 781.5,482.0186 L781.5,116.0186 A2.5,2.5 0 0 1 784,113.5186 " fill="#F7F9FC" style="stroke:#3F4E5E;stroke-width:1.5;"/><line style="stroke:#3F4E5E;stroke-width:1.5;" x1="781.5" x2="884.5" y1="135.6173" y2="135.6173"/><text fill="#000000" font-family="Arial" font-size="14" font-weight="bold" lengthAdjust="spacing" textLength="90" x="785.5" y="128.6505">RAG pipeline</text></g><!--entity API--><g id="elem_API"><rect fill="#FFFFFF" height="36.0986" rx="2.5" ry="2.5" style="stroke:#3F4E5E;stroke-width:0.5;" width="86" x="188" y="857.4686"/><text fill="#000000" font-family="Arial" font-size="14" lengthAdjust="spacing" textLength="66" x="198" y="880.6005">API routes</text></g><!--entity Schemas--><g id="elem_Schemas"><rect fill="#FFFFFF" height="36.0986" rx="2.5" ry="2.5" style="stroke:#3F4E5E;stroke-width:0.5;" width="134" x="439" y="857.4686"/><text fill="#000000" font-family="Arial" font-size="14" lengthAdjust="spacing" textLength="114" x="449" y="880.6005">Request schemas</text></g><!--entity Registry--><g id="elem_Registry"><rect fill="#FFFFFF" height="36.0986" rx="2.5" ry="2.5" style="stroke:#3F4E5E;stroke-width:0.5;" width="116" x="781.5" y="675.4686"/><text fill="#000000" font-family="Arial" font-size="14" lengthAdjust="spacing" textLength="96" x="791.5" y="698.6005">Source registry</text></g><!--entity Pipeline--><g id="elem_Pipeline"><rect fill="#FFFFFF" height="36.0986" rx="2.5" ry="2.5" style="stroke:#3F4E5E;stroke-width:0.5;" width="128" x="442" y="639.4686"/><text fill="#000000" font-family="Arial" font-size="14" lengthAdjust="spacing" textLength="108" x="452" y="662.6005">IngestionPipeline</text></g><!--entity Scraper--><g id="elem_Scraper"><rect fill="#FFFFFF" height="36.0986" rx="2.5" ry="2.5" style="stroke:#3F4E5E;stroke-width:0.5;" width="165" x="757" y="604.4686"/><text fill="#000000" font-family="Arial" font-size="14" lengthAdjust="spacing" textLength="145" x="767" y="627.6005">RSS and Atom scraper</text></g><!--entity Classifier--><g id="elem_Classifier"><rect fill="#FFFFFF" height="36.0986" rx="2.5" ry="2.5" style="stroke:#3F4E5E;stroke-width:0.5;" width="118" x="780.5" y="746.4686"/><text fill="#000000" font-family="Arial" font-size="14" lengthAdjust="spacing" textLength="98" x="790.5" y="769.6005">Article classifier</text></g><!--entity RAG--><g id="elem_RAG"><rect fill="#FFFFFF" height="36.0986" rx="2.5" ry="2.5" style="stroke:#3F4E5E;stroke-width:0.5;" width="84" x="797.5" y="374.4686"/><text fill="#000000" font-family="Arial" font-size="14" lengthAdjust="spacing" textLength="64" x="807.5" y="397.6005">LocalRAG</text></g><!--entity Chunker--><g id="elem_Chunker"><rect fill="#FFFFFF" height="36.0986" rx="2.5" ry="2.5" style="stroke:#3F4E5E;stroke-width:0.5;" width="103" x="1236" y="219.4686"/><text fill="#000000" font-family="Arial" font-size="14" lengthAdjust="spacing" textLength="83" x="1246" y="242.6005">Text chunker</text></g><!--entity Embedder--><g id="elem_Embedder"><rect fill="#FFFFFF" height="36.0986" rx="2.5" ry="2.5" style="stroke:#3F4E5E;stroke-width:0.5;" width="138" x="1218.5" y="290.4686"/><text fill="#000000" font-family="Arial" font-size="14" lengthAdjust="spacing" textLength="118" x="1228.5" y="313.6005">HashingEmbedder</text></g><!--entity Search--><g id="elem_Search"><rect fill="#FFFFFF" height="36.0986" rx="2.5" ry="2.5" style="stroke:#3F4E5E;stroke-width:0.5;" width="170" x="1202.5" y="148.4686"/><text fill="#000000" font-family="Arial" font-size="14" lengthAdjust="spacing" textLength="150" x="1212.5" y="171.6005">Cosine similarity search</text></g><!--entity Prompt--><g id="elem_Prompt"><rect fill="#FFFFFF" height="36.0986" rx="2.5" ry="2.5" style="stroke:#3F4E5E;stroke-width:0.5;" width="110" x="1232.5" y="432.4686"/><text fill="#000000" font-family="Arial" font-size="14" lengthAdjust="spacing" textLength="90" x="1242.5" y="455.6005">PromptBuilder</text></g><!--entity LLMClient--><g id="elem_LLMClient"><rect fill="#FFFFFF" height="36.0986" rx="2.5" ry="2.5" style="stroke:#3F4E5E;stroke-width:0.5;" width="84" x="1245.5" y="361.4686"/><text fill="#000000" font-family="Arial" font-size="14" lengthAdjust="spacing" textLength="64" x="1255.5" y="384.6005">LLMClient</text></g><!--entity User--><g id="elem_User"><ellipse cx="21" cy="845.9686" fill="#F1F1F1" rx="8" ry="8" style="stroke:#181818;stroke-width:0.5;"/><path d="M21,853.9686 L21,880.9686 M8,861.9686 L34,861.9686 M21,880.9686 L8,895.9686 M21,880.9686 L34,895.9686 " fill="none" style="stroke:#181818;stroke-width:0.5;"/><text fill="#000000" font-family="Arial" font-size="14" lengthAdjust="spacing" textLength="30" x="6" y="910.6005">User</text></g><!--entity Feeds--><g id="elem_Feeds"><path d="M1192.1116,608.7848 C1196.4802,603.5623 1201.6286,603.1227 1205.2489,609.6234 C1209.1538,601.2563 1214.4989,602.1715 1220.2446,607.6263 C1224.1789,601.3591 1229.3753,602.357 1232.3624,608.5477 C1236.5301,600.5707 1243.6419,601.7926 1247.6947,608.6662 C1250.4656,601.9211 1255.7395,600.6427 1260.9813,605.9399 C1266.0713,599.1004 1270.2264,600.2251 1274.754,606.5291 C1278.2446,598.1982 1285.2711,598.0842 1289.6618,605.6869 C1292.8203,600.1168 1298.8708,600.9023 1301.8116,605.9363 C1307.0218,598.5995 1313.645,601.0638 1317.215,607.7393 C1321.0719,603.1671 1326.0763,602.5946 1328.8665,608.8837 C1334.4017,600.3829 1339.2266,600.8564 1344.8407,608.8071 C1348.7561,602.4562 1354.5237,602.9128 1358.041,609.2223 C1361.4317,603.0259 1367.4325,602.7565 1371.1781,608.8427 C1376.3264,602.0509 1380.2123,604.0099 1384.262,609.9699 C1393.2073,612.0769 1394.9938,617.8814 1388.8533,624.6929 C1396.0042,630.5655 1393.8364,636.8235 1386.1419,640.0803 C1383.7485,648.1613 1377.2842,648.6746 1372.4821,642.3671 C1368.6627,650.637 1362.6721,651.4973 1357.4157,643.7158 C1354.8189,650.6292 1349.0419,651.3896 1344.8078,645.3039 C1340.2775,653.0303 1333.0744,652.6547 1329.0387,644.8034 C1326.2071,651.5058 1320.5181,652.6987 1315.427,647.357 C1312.6149,653.3423 1308.1634,653.6733 1303.7795,649.089 C1299.4896,657.5171 1293.4349,655.6416 1288.5482,649.7226 C1284.905,655.7812 1279.5446,655.9237 1275.8738,649.7512 C1270.5483,655.9753 1264.3119,655.1437 1261.2372,647.3936 C1256.3581,655.1497 1250.4971,653.0338 1246.198,646.7713 C1241.277,651.8058 1237.9564,650.0955 1234.9598,644.6981 C1229.9014,650.6977 1224.1493,650.656 1221.0976,642.7044 C1215.7545,649.5995 1209.4105,648.6302 1206.4678,640.3849 C1201.0162,647.4359 1196.5071,645.6691 1192.4113,638.9963 C1180.897,640.0081 1176.8821,634.4528 1180.6411,623.7069 C1177.5853,614.5789 1181.3654,607.3032 1192.1116,608.7848 " fill="#F1F1F1" style="stroke:#181818;stroke-width:0.5;"/><text fill="#000000" font-family="Arial" font-size="14" lengthAdjust="spacing" textLength="179" x="1198" y="628.6005">Official RSS and Atom feeds</text></g><!--entity DB--><g id="elem_DB"><path d="M1216.5,513.9186 C1216.5,503.9186 1287.5,503.9186 1287.5,503.9186 C1287.5,503.9186 1358.5,503.9186 1358.5,513.9186 L1358.5,555.1159 C1358.5,565.1159 1287.5,565.1159 1287.5,565.1159 C1287.5,565.1159 1216.5,565.1159 1216.5,555.1159 L1216.5,513.9186 " fill="#FFF8E7" style="stroke:#8A6D3B;stroke-width:0.5;"/><path d="M1216.5,513.9186 C1216.5,523.9186 1287.5,523.9186 1287.5,523.9186 C1287.5,523.9186 1358.5,523.9186 1358.5,513.9186 " fill="none" style="stroke:#8A6D3B;stroke-width:0.5;"/><text fill="#000000" font-family="Arial" font-size="14" lengthAdjust="spacing" textLength="43" x="1226.5" y="541.0505">SQLite</text><text fill="#000000" font-family="Arial" font-size="14" lengthAdjust="spacing" textLength="122" x="1226.5" y="557.1491">articles and chunks</text></g><!--entity Model--><g id="elem_Model"><rect fill="#F1F1F1" height="55.1973" rx="2.5" ry="2.5" style="stroke:#181818;stroke-width:0.5;" width="114" x="1810" y="351.9186"/><polygon fill="#F1F1F1" points="1907,356.9186,1907,370.9186,1919,370.9186,1919,362.9186,1913,356.9186,1907,356.9186" style="stroke:#181818;stroke-width:0.5;"/><line style="stroke:#181818;stroke-width:0.5;" x1="1913" x2="1913" y1="356.9186" y2="362.9186"/><line style="stroke:#181818;stroke-width:0.5;" x1="1919" x2="1913" y1="362.9186" y2="362.9186"/><text fill="#000000" font-family="Arial" font-size="14" lengthAdjust="spacing" textLength="84" x="1820" y="378.0505">Llama 3.2 3B</text><text fill="#000000" font-family="Arial" font-size="14" lengthAdjust="spacing" textLength="84" x="1820" y="394.1491">GGUF model</text></g><!--entity LlamaCpp--><g id="elem_LlamaCpp"><rect fill="#FFFFFF" height="36.0986" rx="2.5" ry="2.5" style="stroke:#3F4E5E;stroke-width:0.5;" width="130" x="1502" y="361.4686"/><text fill="#000000" font-family="Arial" font-size="14" lengthAdjust="spacing" textLength="110" x="1512" y="384.6005">llama-cpp-python</text></g><g id="elem_GMN41"><path d="M1134,43.0986 L1134,97.9448 L1441,97.9448 L1441,53.0986 L1431,43.0986 L1134,43.0986 " fill="#FEFFDD" style="stroke:#181818;stroke-width:0.5;"/><path d="M1431,43.0986 L1431,53.0986 L1441,53.0986 L1431,43.0986 " fill="#FEFFDD" style="stroke:#181818;stroke-width:1.0;"/><text fill="#000000" font-family="Arial" font-size="13" lengthAdjust="spacing" textLength="255" x="1140" y="60.2925">Current implementation uses a deterministic</text><text fill="#000000" font-family="Arial" font-size="13" lengthAdjust="spacing" textLength="286" x="1140" y="75.2412">hashing embedder. A semantic embedding model</text><text fill="#000000" font-family="Arial" font-size="13" lengthAdjust="spacing" textLength="141" x="1140" y="90.1899">is a future improvement.</text></g><!--link User to API--><g id="link_User_API"><path d="M36.3,875.5186 C67.04,875.5186 134.48,875.5186 181.58,875.5186 " fill="none" id="User-to-API" style="stroke:#181818;stroke-width:1.0;"/><polygon fill="#181818" points="187.58,875.5186,178.58,871.5186,182.58,875.5186,178.58,879.5186,187.58,875.5186" style="stroke:#181818;stroke-width:1.0;"/><text fill="#000000" font-family="Arial" font-size="13" lengthAdjust="spacing" textLength="88" x="67" y="872.7125">HTTP requests</text></g><!--link API to Schemas--><g id="link_API_Schemas"><path d="M274.36,875.5186 C318.24,875.5186 381.43,875.5186 432.59,875.5186 " fill="none" id="API-to-Schemas" style="stroke:#181818;stroke-width:1.0;"/><polygon fill="#181818" points="438.59,875.5186,429.59,871.5186,433.59,875.5186,429.59,879.5186,438.59,875.5186" style="stroke:#181818;stroke-width:1.0;"/><text fill="#000000" font-family="Arial" font-size="13" lengthAdjust="spacing" textLength="103" x="305" y="872.7125">Validate payloads</text></g><!--link API to Pipeline--><g id="link_API_Pipeline"><path d="M254.81,857.3086 C306.19,816.2686 425.8713,720.7025 477.3813,679.5725 " fill="none" id="API-to-Pipeline" style="stroke:#181818;stroke-width:1.0;"/><polygon fill="#181818" points="482.07,675.8286,472.5411,678.3186,478.1628,678.9485,477.5329,684.5702,482.07,675.8286" style="stroke:#181818;stroke-width:1.0;"/><text fill="#000000" font-family="Arial" font-size="13" lengthAdjust="spacing" textLength="79" x="317" y="731.4525">POST /ingest</text></g><!--link Pipeline to Registry--><g id="link_Pipeline_Registry"><path d="M570.48,666.2586 C581.96,667.7486 593.83,669.2286 605,670.5186 C665.09,677.4586 728.0651,683.5405 775.3751,687.8805 " fill="none" id="Pipeline-to-Registry" style="stroke:#181818;stroke-width:1.0;"/><polygon fill="#181818" points="781.35,688.4286,772.753,683.6232,776.3709,687.9719,772.0222,691.5897,781.35,688.4286" style="stroke:#181818;stroke-width:1.0;"/><text fill="#000000" font-family="Arial" font-size="13" lengthAdjust="spacing" textLength="120" x="606" y="667.7125">Get enabled sources</text></g><!--link Pipeline to Scraper--><g id="link_Pipeline_Scraper"><path d="M570.13,650.8486 C623.11,645.2586 693.1731,637.8583 750.7931,631.7783 " fill="none" id="Pipeline-to-Scraper" style="stroke:#181818;stroke-width:1.0;"/><polygon fill="#181818" points="756.76,631.1486,747.3899,628.1151,751.7876,631.6733,748.2294,636.071,756.76,631.1486" style="stroke:#181818;stroke-width:1.0;"/><text fill="#000000" font-family="Arial" font-size="13" lengthAdjust="spacing" textLength="91" x="620.5" y="632.0325">Scrape sources</text></g><!--link Scraper to Feeds--><g id="link_Scraper_Feeds"><path d="M922.3,622.6986 C995.61,622.8686 1097.5,623.095 1176.83,623.275 " fill="none" id="Scraper-to-Feeds" style="stroke:#181818;stroke-width:1.0;"/><polygon fill="#181818" points="1182.83,623.2886,1173.8391,619.2682,1177.83,623.2773,1173.8209,627.2682,1182.83,623.2886" style="stroke:#181818;stroke-width:1.0;"/><text fill="#000000" font-family="Arial" font-size="13" lengthAdjust="spacing" textLength="65" x="996.5" y="619.9825">HTTP GET</text></g><!--link Pipeline to Classifier--><g id="link_Pipeline_Classifier"><path d="M538.37,675.8886 C557.2,686.3086 581.9,698.9386 605,707.5186 C663.09,729.0886 726.4722,743.6639 774.4022,753.0639 " fill="none" id="Pipeline-to-Classifier" style="stroke:#181818;stroke-width:1.0;"/><polygon fill="#181818" points="780.29,754.2186,772.2281,748.5613,775.3835,753.2564,770.6884,756.4118,780.29,754.2186" style="stroke:#181818;stroke-width:1.0;"/><text fill="#000000" font-family="Arial" font-size="13" lengthAdjust="spacing" textLength="86" x="623" y="704.7125">Classify article</text></g><!--link Pipeline to DB--><g id="link_Pipeline_DB"><path d="M539.14,639.1686 C557.82,629.2686 582.12,617.6486 605,610.5186 C820.4,543.4386 1084.33,534.0463 1210.04,533.6763 " fill="none" id="Pipeline-to-DB" style="stroke:#181818;stroke-width:1.0;"/><polygon fill="#181818" points="1216.04,533.6586,1207.0283,529.6851,1211.04,533.6733,1207.0518,537.6851,1216.04,533.6586" style="stroke:#181818;stroke-width:1.0;"/><text fill="#000000" font-family="Arial" font-size="13" lengthAdjust="spacing" textLength="77" x="801" y="544.5725">Upsert article</text></g><!--link Pipeline to RAG--><g id="link_Pipeline_RAG"><path d="M514.31,639.0886 C527.65,607.7486 558.9,544.0486 605,508.5186 C650.31,473.5986 675.7,492.8186 727,467.5186 C759.43,451.5286 788.6911,431.0366 810.4911,414.4866 " fill="none" id="Pipeline-to-RAG" style="stroke:#181818;stroke-width:1.0;"/><polygon fill="#181818" points="815.27,410.8586,805.683,413.1147,811.2876,413.882,810.5204,419.4865,815.27,410.8586" style="stroke:#181818;stroke-width:1.0;"/><text fill="#000000" font-family="Arial" font-size="13" lengthAdjust="spacing" textLength="78" x="627" y="464.7125">Rebuild index</text></g><!--link API to RAG--><g id="link_API_RAG"><path d="M237.71,857.1686 C248.02,825.5886 271.73,759.6186 304,710.5186 C401.58,562.0686 444.17,522.9786 605,447.5186 C668.34,417.7986 743.1624,404.1897 791.2024,397.7997 " fill="none" id="API-to-RAG" style="stroke:#181818;stroke-width:1.0;"/><polygon fill="#181818" points="797.15,397.0086,787.7012,394.2302,792.1937,397.6679,788.756,402.1604,797.15,397.0086" style="stroke:#181818;stroke-width:1.0;"/><text fill="#000000" font-family="Arial" font-size="13" lengthAdjust="spacing" textLength="87" x="462.5" y="449.6925">POST /rag/ask</text></g><!--link API to DB--><g id="link_API_DB"><path d="M274.36,886.6586 C342.59,903.0486 480.96,929.8386 597,911.5186 C758.04,886.0986 808.13,885.5486 946,798.5186 C1032.4,743.9786 1041.88,712.6386 1104,631.5186 C1119.53,611.2486 1113.88,598.2386 1134,582.5186 C1157.62,564.0686 1182.6442,554.1141 1210.3942,547.0741 " fill="none" id="API-to-DB" style="stroke:#181818;stroke-width:1.0;"/><polygon fill="#181818" points="1216.21,545.5986,1206.5027,543.9346,1211.3635,546.8282,1208.47,551.6889,1216.21,545.5986" style="stroke:#181818;stroke-width:1.0;"/><text fill="#000000" font-family="Arial" font-size="13" lengthAdjust="spacing" textLength="76" x="628" y="888.1025">Read articles</text></g><!--link RAG to DB--><g id="link_RAG_DB"><path d="M867.86,410.8686 C890.19,425.1286 923.02,444.4386 954,456.5186 C1041.42,490.6186 1141.8946,511.3645 1210.4046,522.9945 " fill="none" id="RAG-to-DB" style="stroke:#181818;stroke-width:1.0;"/><polygon fill="#181818" points="1216.32,523.9986,1208.1164,518.5488,1211.3905,523.1618,1206.7775,526.436,1216.32,523.9986" style="stroke:#181818;stroke-width:1.0;"/><text fill="#000000" font-family="Arial" font-size="13" lengthAdjust="spacing" textLength="147" x="955.5" y="453.7125">Read articles and chunks</text></g><!--link RAG to Chunker--><g id="link_RAG_Chunker"><path d="M860.18,374.0686 C881.62,355.0186 917.71,325.8286 954,309.5186 C1048.14,267.2086 1162.7246,249.762 1229.7646,242.532 " fill="none" id="RAG-to-Chunker" style="stroke:#181818;stroke-width:1.0;"/><polygon fill="#181818" points="1235.73,241.8886,1226.353,238.8767,1230.7588,242.4248,1227.2108,246.8306,1235.73,241.8886" style="stroke:#181818;stroke-width:1.0;"/><text fill="#000000" font-family="Arial" font-size="13" lengthAdjust="spacing" textLength="91" x="983.5" y="261.8025">Split article text</text></g><!--link RAG to Embedder--><g id="link_RAG_Embedder"><path d="M881.98,379.5386 C903.34,373.1786 929.9,365.7786 954,360.5186 C1044.62,340.7286 1144.7594,326.257 1212.2894,317.537 " fill="none" id="RAG-to-Embedder" style="stroke:#181818;stroke-width:1.0;"/><polygon fill="#181818" points="1218.24,316.7686,1208.8018,313.9542,1213.2812,317.409,1209.8264,321.8883,1218.24,316.7686" style="stroke:#181818;stroke-width:1.0;"/><text fill="#000000" font-family="Arial" font-size="13" lengthAdjust="spacing" textLength="148" x="955" y="330.9825">Embed chunks and query</text></g><!--link RAG to Search--><g id="link_RAG_Search"><path d="M848.77,374.1986 C864.39,341.7686 901.46,274.5086 954,240.5186 C1028.85,192.0986 1124.8701,175.5291 1196.0801,169.6891 " fill="none" id="RAG-to-Search" style="stroke:#181818;stroke-width:1.0;"/><polygon fill="#181818" points="1202.06,169.1986,1192.7632,165.9476,1197.0767,169.6073,1193.4171,173.9209,1202.06,169.1986" style="stroke:#181818;stroke-width:1.0;"/><text fill="#000000" font-family="Arial" font-size="13" lengthAdjust="spacing" textLength="104" x="977" y="181.3325">Rank by similarity</text></g><!--link RAG to Prompt--><g id="link_RAG_Prompt"><path d="M881.89,400.9186 C903.35,405.0886 930.01,409.9686 954,413.5186 C1051.68,427.9686 1160.2758,438.9925 1226.2358,445.1325 " fill="none" id="RAG-to-Prompt" style="stroke:#181818;stroke-width:1.0;"/><polygon fill="#181818" points="1232.21,445.6886,1223.6195,440.8717,1227.2315,445.2252,1222.878,448.8372,1232.21,445.6886" style="stroke:#181818;stroke-width:1.0;"/><text fill="#000000" font-family="Arial" font-size="13" lengthAdjust="spacing" textLength="130" x="964" y="410.7125">Build grounded prompt</text></g><!--link RAG to LLMClient--><g id="link_RAG_LLMClient"><path d="M881.66,391.3186 C966.52,388.8486 1154.0725,383.3835 1239.1225,380.9035 " fill="none" id="RAG-to-LLMClient" style="stroke:#181818;stroke-width:1.0;"/><polygon fill="#181818" points="1245.12,380.7286,1236.0072,376.9927,1240.1221,380.8744,1236.2404,384.9893,1245.12,380.7286" style="stroke:#181818;stroke-width:1.0;"/><text fill="#000000" font-family="Arial" font-size="13" lengthAdjust="spacing" textLength="98" x="980" y="382.0525">Generate answer</text></g><!--link LLMClient to LlamaCpp--><g id="link_LLMClient_LlamaCpp"><path d="M1329.74,379.5186 C1375.12,379.5186 1442.61,379.5186 1495.59,379.5186 " fill="none" id="LLMClient-to-LlamaCpp" style="stroke:#181818;stroke-width:1.0;"/><polygon fill="#181818" points="1501.59,379.5186,1492.59,375.5186,1496.59,379.5186,1492.59,383.5186,1501.59,379.5186" style="stroke:#181818;stroke-width:1.0;"/></g><!--link LlamaCpp to Model--><g id="link_LlamaCpp_Model"><path d="M1632.29,379.5186 C1685.16,379.5186 1753.34,379.5186 1803.85,379.5186 " fill="none" id="LlamaCpp-to-Model" style="stroke:#181818;stroke-width:1.0;"/><polygon fill="#181818" points="1809.85,379.5186,1800.85,375.5186,1804.85,379.5186,1800.85,383.5186,1809.85,379.5186" style="stroke:#181818;stroke-width:1.0;"/><text fill="#000000" font-family="Arial" font-size="13" lengthAdjust="spacing" textLength="116" x="1663" y="376.7125">Load and run locally</text></g><!--link Embedder to GMN41--><g id="link_Embedder_GMN41"><path d="M1218.1,315.2686 C1160.62,316.5886 1081.82,307.6386 1040,256.0186 C1010.34,219.4086 1012.24,188.0886 1040,150.0186 C1062.53,119.1086 1097.27,99.9586 1133.67,88.1586 " fill="none" id="Embedder-GMN41" style="stroke:#181818;stroke-width:1.0;stroke-dasharray:7.0,7.0;"/></g><!--SRC=[ZLLDZzis4BtpLmpSipT0j_ay5B2zjXDWqxYsjxdaCgOeYp15gYILZL7qltU6b6JBs03LQSXvVFF1DrJKqIYO7Rs6hnXb1LDOkBfnLja8Coyh7PMChLT2X9Es3NgiuO3oTFIkjSN26UVXcL5N_b1XuPwrFKA99bnx2bLYQ-BAsVW7rXJOQpHNVjd7tiKpvUKfDjgZkQPeA3WU5VmZ0EOtYVooUhjwlrgmn_b2-MxtVlNRylLI_FjIe9_mfEz_y1GOyO11_PJctVBjBSsxsPk7-pdH2AFA2D61rySgGg6vNksi42WZ8P-2ya8QrnOm-LAMMbApOBlR0Te2Pj7LK2fLX0bWW1LRGlJTcQmmnDdc4s3J62sHQISfoKlb4_PJkb5b2bgE_LlrTwj2X20hLMC6xRBDsG-nlge3q6qJzAKeEzTwoNTvr27wSsBPTeinybFFiT6DCjggXEqNDxbTjo58ZutoNOB9lgdKHor9KD9W2BhK7NOnB4VrR6ThQ8OKRifvT18D8N8Ti_NOkrS_8iYgjQS-HBR7g8yOAchOiZweekY0_MACNBX0IK3GjJReTJn3K4XZcKjDvlZ0nfCTvwqsFN7UkIdYyVF2Q38JObXn5mP5JtP_Fj9SVxEOcnTIlrDjMGeFSy6kaiHAZ0PhXFkxN-5-_iskrqyhg5sXJ49-PajSnJUCdigccJRdMB5eE0tUN3ID42nyc4v_Pqd21_Yutsz8FqcCGV0U-pebalylD9hILlGsd8r3deCUr8k7K9ilkpsyoZeLmpw3UZKIQAqYA8i7eme8IRXXZEtaHT1i3QZUmQ0qZ7tYw-L-J75H7K6wnHcwBe-X3tE2F3NKZlWoWANwWGeuy8NJ41RgnwNuxCnrUpo-md0QV8bvgx3eUQbfZ7_PTtNr0wfJDdU2dfWXFuWq0WEeLpMXajcH93wwJte1UcGMCmT6UuB3-Khp0oPBcJ19tv3VMY9jiiHxsA3dTA5MUTO6sl1CqoKkpWJjDTSRQJVfbGu_Eku1fUfR2uO7tvo5i8xe3Yxoo-FAo-0kMk-PLzUDKJLPwTM5Dd3_wDSNbQ-r9QLfAQhy0e3g3j_1Z2QxHalERfFTQOI4vlDboxzX9lVkUwA_4ufIusp4Vm00]--></g></svg>