<?xml version="1.0" encoding="us-ascii" standalone="no"?><svg xmlns="http://www.w3.org/2000/svg" xmlns:xlink="http://www.w3.org/1999/xlink" contentStyleType="text/css" height="886px" preserveAspectRatio="none" style="width:699px;height:886px;background:#FFFFFF;" version="1.1" viewBox="0 0 699 886" width="699px" zoomAndPan="magnify"><defs/><g><text fill="#000000" font-family="Arial" font-size="14" font-weight="bold" lengthAdjust="spacing" textLength="165" x="263.25" y="23.1318">Agri Watch - Data Model</text><!--class Source--><g id="elem_Source"><rect codeLine="16" fill="#F7F9FC" height="152.6904" id="Source" rx="2.5" ry="2.5" style="stroke:#3F4E5E;stroke-width:0.5;" width="114" x="6" y="49.0986"/><ellipse cx="37.65" cy="65.0986" fill="#ADD1B2" rx="11" ry="11" style="stroke:#181818;stroke-width:1.0;"/><path d="M40.1231,71.2417 Q39.5421,71.5405 38.9029,71.6899 Q38.2638,71.8394 37.5582,71.8394 Q35.0514,71.8394 33.7315,70.1875 Q32.4117,68.5356 32.4117,65.4146 Q32.4117,62.2852 33.7315,60.6333 Q35.0514,58.9814 37.5582,58.9814 Q38.2638,58.9814 38.9112,59.1309 Q39.5587,59.2803 40.1231,59.5791 L40.1231,62.3018 Q39.4923,61.7207 38.8988,61.4509 Q38.3053,61.1812 37.6744,61.1812 Q36.3297,61.1812 35.6449,62.2478 Q34.9601,63.3145 34.9601,65.4146 Q34.9601,67.5063 35.6449,68.573 Q36.3297,69.6396 37.6744,69.6396 Q38.3053,69.6396 38.8988,69.3699 Q39.4923,69.1001 40.1231,68.519 Z " fill="#000000"/><text fill="#000000" font-family="Arial" font-size="14" lengthAdjust="spacing" textLength="45" x="55.35" y="70.1812">Source</text><line style="stroke:#3F4E5E;stroke-width:0.5;" x1="7" x2="119" y1="81.0986" y2="81.0986"/><text fill="#000000" font-family="Arial" font-size="14" lengthAdjust="spacing" textLength="86" x="12" y="98.2305">source_id: str</text><text fill="#000000" font-family="Arial" font-size="14" lengthAdjust="spacing" textLength="60" x="12" y="114.3291">name: str</text><text fill="#000000" font-family="Arial" font-size="14" lengthAdjust="spacing" textLength="40" x="12" y="130.4277">url: str</text><text fill="#000000" font-family="Arial" font-size="14" lengthAdjust="spacing" textLength="64" x="12" y="146.5264">region: str</text><text fill="#000000" font-family="Arial" font-size="14" lengthAdjust="spacing" textLength="102" x="12" y="162.625">source_type: str</text><text fill="#000000" font-family="Arial" font-size="14" lengthAdjust="spacing" textLength="86" x="12" y="178.7236">enabled: bool</text><text fill="#000000" font-family="Arial" font-size="14" lengthAdjust="spacing" textLength="90" x="12" y="194.8223">reliability: float</text></g><!--class Article--><g id="elem_Article"><rect codeLine="26" fill="#F7F9FC" height="233.1836" id="Article" rx="2.5" ry="2.5" style="stroke:#3F4E5E;stroke-width:0.5;" width="164" x="257" y="254.0986"/><ellipse cx="315.25" cy="270.0986" fill="#ADD1B2" rx="11" ry="11" style="stroke:#181818;stroke-width:1.0;"/><path d="M317.7231,276.2417 Q317.1421,276.5405 316.5029,276.6899 Q315.8638,276.8394 315.1582,276.8394 Q312.6514,276.8394 311.3315,275.1875 Q310.0117,273.5356 310.0117,270.4146 Q310.0117,267.2852 311.3315,265.6333 Q312.6514,263.9814 315.1582,263.9814 Q315.8638,263.9814 316.5112,264.1309 Q317.1587,264.2803 317.7231,264.5791 L317.7231,267.3018 Q317.0923,266.7207 316.4988,266.4509 Q315.9053,266.1812 315.2744,266.1812 Q313.9297,266.1812 313.2449,267.2478 Q312.5601,268.3145 312.5601,270.4146 Q312.5601,272.5063 313.2449,273.573 Q313.9297,274.6396 315.2744,274.6396 Q315.9053,274.6396 316.4988,274.3699 Q317.0923,274.1001 317.7231,273.519 Z " fill="#000000"/><text fill="#000000" font-family="Arial" font-size="14" lengthAdjust="spacing" textLength="39" x="335.75" y="275.1812">Article</text><line style="stroke:#3F4E5E;stroke-width:0.5;" x1="258" x2="420" y1="286.0986" y2="286.0986"/><text fill="#000000" font-family="Arial" font-size="14" lengthAdjust="spacing" textLength="34" x="263" y="303.2305">id: int</text><text fill="#000000" font-family="Arial" font-size="14" lengthAdjust="spacing" textLength="86" x="263" y="319.3291">source_id: str</text><text fill="#000000" font-family="Arial" font-size="14" lengthAdjust="spacing" textLength="46" x="263" y="335.4277">title: str</text><text fill="#000000" font-family="Arial" font-size="14" lengthAdjust="spacing" textLength="40" x="263" y="351.5264">url: str</text><text fill="#000000" font-family="Arial" font-size="14" lengthAdjust="spacing" textLength="83" x="263" y="367.625">summary: str</text><text fill="#000000" font-family="Arial" font-size="14" lengthAdjust="spacing" textLength="71" x="263" y="383.7236">content: str</text><text fill="#000000" font-family="Arial" font-size="14" lengthAdjust="spacing" textLength="152" x="263" y="399.8223">published_at: datetime?</text><text fill="#000000" font-family="Arial" font-size="14" lengthAdjust="spacing" textLength="79" x="263" y="415.9209">category: str</text><text fill="#000000" font-family="Arial" font-size="14" lengthAdjust="spacing" textLength="104" x="263" y="432.0195">confidence: float</text><text fill="#000000" font-family="Arial" font-size="14" lengthAdjust="spacing" textLength="133" x="263" y="448.1182">effective_date: date?</text><text fill="#000000" font-family="Arial" font-size="14" lengthAdjust="spacing" textLength="103" x="263" y="464.2168">impact_level: str</text><text fill="#000000" font-family="Arial" font-size="14" lengthAdjust="spacing" textLength="131" x="263" y="480.3154">created_at: datetime</text></g><!--class Chunk--><g id="elem_Chunk"><rect codeLine="41" fill="#F7F9FC" height="120.4932" id="Chunk" rx="2.5" ry="2.5" style="stroke:#3F4E5E;stroke-width:0.5;" width="141" x="268.5" y="539.0986"/><ellipse cx="314.25" cy="555.0986" fill="#ADD1B2" rx="11" ry="11" style="stroke:#181818;stroke-width:1.0;"/><path d="M316.7231,561.2417 Q316.1421,561.5405 315.5029,561.6899 Q314.8638,561.8394 314.1582,561.8394 Q311.6514,561.8394 310.3315,560.1875 Q309.0117,558.5356 309.0117,555.4146 Q309.0117,552.2852 310.3315,550.6333 Q311.6514,548.9814 314.1582,548.9814 Q314.8638,548.9814 315.5112,549.1309 Q316.1587,549.2803 316.7231,549.5791 L316.7231,552.3018 Q316.0923,551.7207 315.4988,551.4509 Q314.9053,551.1812 314.2744,551.1812 Q312.9297,551.1812 312.2449,552.2478 Q311.5601,553.3145 311.5601,555.4146 Q311.5601,557.5063 312.2449,558.573 Q312.9297,559.6396 314.2744,559.6396 Q314.9053,559.6396 315.4988,559.3699 Q316.0923,559.1001 316.7231,558.519 Z " fill="#000000"/><text fill="#000000" font-family="Arial" font-size="14" lengthAdjust="spacing" textLength="41" x="334.75" y="560.1812">Chunk</text><line style="stroke:#3F4E5E;stroke-width:0.5;" x1="269.5" x2="408.5" y1="571.0986" y2="571.0986"/><text fill="#000000" font-family="Arial" font-size="14" lengthAdjust="spacing" textLength="34" x="274.5" y="588.2305">id: int</text><text fill="#000000" font-family="Arial" font-size="14" lengthAdjust="spacing" textLength="80" x="274.5" y="604.3291">article_id: int</text><text fill="#000000" font-family="Arial" font-size="14" lengthAdjust="spacing" textLength="103" x="274.5" y="620.4277">chunk_index: int</text><text fill="#000000" font-family="Arial" font-size="14" lengthAdjust="spacing" textLength="47" x="274.5" y="636.5264">text: str</text><text fill="#000000" font-family="Arial" font-size="14" lengthAdjust="spacing" textLength="129" x="274.5" y="652.625">embedding_json: str</text></g><!--class ClassificationResult--><g id="elem_ClassificationResult"><rect codeLine="49" fill="#F7F9FC" height="120.4932" id="ClassificationResult" rx="2.5" ry="2.5" style="stroke:#3F4E5E;stroke-width:0.5;" width="155" x="414.5" y="65.5986"/><ellipse cx="429.5" cy="81.5986" fill="#ADD1B2" rx="11" ry="11" style="stroke:#181818;stroke-width:1.0;"/><path d="M431.9731,87.7417 Q431.3921,88.0405 430.7529,88.1899 Q430.1138,88.3394 429.4082,88.3394 Q426.9014,88.3394 425.5815,86.6875 Q424.2617,85.0356 424.2617,81.9146 Q424.2617,78.7852 425.5815,77.1333 Q426.9014,75.4814 429.4082,75.4814 Q430.1138,75.4814 430.7612,75.6309 Q431.4087,75.7803 431.9731,76.0791 L431.9731,78.8018 Q431.3423,78.2207 430.7488,77.9509 Q430.1553,77.6812 429.5244,77.6812 Q428.1797,77.6812 427.4949,78.7478 Q426.8101,79.8145 426.8101,81.9146 Q426.8101,84.0063 427.4949,85.073 Q428.1797,86.1396 429.5244,86.1396 Q430.1553,86.1396 430.7488,85.8699 Q431.3423,85.6001 431.9731,85.019 Z " fill="#000000"/><text fill="#000000" font-family="Arial" font-size="14" lengthAdjust="spacing" textLength="123" x="443.5" y="86.6812">ClassificationResult</text><line style="stroke:#3F4E5E;stroke-width:0.5;" x1="415.5" x2="568.5" y1="97.5986" y2="97.5986"/><text fill="#000000" font-family="Arial" font-size="14" lengthAdjust="spacing" textLength="79" x="420.5" y="114.7305">category: str</text><text fill="#000000" font-family="Arial" font-size="14" lengthAdjust="spacing" textLength="104" x="420.5" y="130.8291">confidence: float</text><text fill="#000000" font-family="Arial" font-size="14" lengthAdjust="spacing" textLength="133" x="420.5" y="146.9277">effective_date: date?</text><text fill="#000000" font-family="Arial" font-size="14" lengthAdjust="spacing" textLength="103" x="420.5" y="163.0264">impact_level: str</text><text fill="#000000" font-family="Arial" font-size="14" lengthAdjust="spacing" textLength="114" x="420.5" y="179.125">reasons: tuple[str]</text></g><!--class SearchResult--><g id="elem_SearchResult"><rect codeLine="57" fill="#F7F9FC" height="168.7891" id="SearchResult" rx="2.5" ry="2.5" style="stroke:#3F4E5E;stroke-width:0.5;" width="117" x="280.5" y="711.0986"/><ellipse cx="295.5" cy="727.0986" fill="#ADD1B2" rx="11" ry="11" style="stroke:#181818;stroke-width:1.0;"/><path d="M297.9731,733.2417 Q297.3921,733.5405 296.7529,733.6899 Q296.1138,733.8394 295.4082,733.8394 Q292.9014,733.8394 291.5815,732.1875 Q290.2617,730.5356 290.2617,727.4146 Q290.2617,724.2852 291.5815,722.6333 Q292.9014,720.9814 295.4082,720.9814 Q296.1138,720.9814 296.7612,721.1309 Q297.4087,721.2803 297.9731,721.5791 L297.9731,724.3018 Q297.3423,723.7207 296.7488,723.4509 Q296.1553,723.1812 295.5244,723.1812 Q294.1797,723.1812 293.4949,724.2478 Q292.8101,725.3145 292.8101,727.4146 Q292.8101,729.5063 293.4949,730.573 Q294.1797,731.6396 295.5244,731.6396 Q296.1553,731.6396 296.7488,731.3699 Q297.3423,731.1001 297.9731,730.519 Z " fill="#000000"/><text fill="#000000" font-family="Arial" font-size="14" lengthAdjust="spacing" textLength="85" x="309.5" y="732.1812">SearchResult</text><line style="stroke:#3F4E5E;stroke-width:0.5;" x1="281.5" x2="396.5" y1="743.0986" y2="743.0986"/><text fill="#000000" font-family="Arial" font-size="14" lengthAdjust="spacing" textLength="80" x="286.5" y="760.2305">article_id: int</text><text fill="#000000" font-family="Arial" font-size="14" lengthAdjust="spacing" textLength="46" x="286.5" y="776.3291">title: str</text><text fill="#000000" font-family="Arial" font-size="14" lengthAdjust="spacing" textLength="40" x="286.5" y="792.4277">url: str</text><text fill="#000000" font-family="Arial" font-size="14" lengthAdjust="spacing" textLength="79" x="286.5" y="808.5264">category: str</text><text fill="#000000" font-family="Arial" font-size="14" lengthAdjust="spacing" textLength="86" x="286.5" y="824.625">source_id: str</text><text fill="#000000" font-family="Arial" font-size="14" lengthAdjust="spacing" textLength="103" x="286.5" y="840.7236">chunk_index: int</text><text fill="#000000" font-family="Arial" font-size="14" lengthAdjust="spacing" textLength="47" x="286.5" y="856.8223">text: str</text><text fill="#000000" font-family="Arial" font-size="14" lengthAdjust="spacing" textLength="70" x="286.5" y="872.9209">score: float</text></g><g id="elem_GMN11"><path d="M439.5,343.0986 L439.5,366.5986 L421.0215,370.5986 L439.5,374.5986 L439.5,397.9448 A0,0 0 0 0 439.5,397.9448 L692.5,397.9448 A0,0 0 0 0 692.5,397.9448 L692.5,353.0986 L682.5,343.0986 L439.5,343.0986 A0,0 0 0 0 439.5,343.0986 " fill="#FEFFDD" style="stroke:#181818;stroke-width:0.5;"/><path d="M682.5,343.0986 L682.5,353.0986 L692.5,353.0986 L682.5,343.0986 " fill="#FEFFDD" style="stroke:#181818;stroke-width:0.5;"/><text fill="#000000" font-family="Arial" font-size="13" lengthAdjust="spacing" textLength="111" x="445.5" y="360.2925">The URL is unique.</text><text fill="#000000" font-family="Arial" font-size="13" lengthAdjust="spacing" textLength="232" x="445.5" y="375.2412">Repeated ingestion updates the existing</text><text fill="#000000" font-family="Arial" font-size="13" lengthAdjust="spacing" textLength="220" x="445.5" y="390.1899">article instead of inserting a duplicate.</text></g><g id="elem_GMN14"><path d="M138,98.0986 L138,121.5986 L120.375,125.5986 L138,129.5986 L138,152.9448 A0,0 0 0 0 138,152.9448 L396,152.9448 A0,0 0 0 0 396,152.9448 L396,108.0986 L386,98.0986 L138,98.0986 A0,0 0 0 0 138,98.0986 " fill="#FEFFDD" style="stroke:#181818;stroke-width:0.5;"/><path d="M386,98.0986 L386,108.0986 L396,108.0986 L386,98.0986 " fill="#FEFFDD" style="stroke:#181818;stroke-width:0.5;"/><text fill="#000000" font-family="Arial" font-size="13" lengthAdjust="spacing" textLength="237" x="144" y="115.2925">Source definitions are configuration data.</text><text fill="#000000" font-family="Arial" font-size="13" lengthAdjust="spacing" textLength="196" x="144" y="130.2412">They are not currently stored as a</text><text fill="#000000" font-family="Arial" font-size="13" lengthAdjust="spacing" textLength="158" x="144" y="145.1899">foreign-key table in SQLite.</text></g><polygon fill="#3F4E5E" points="256.9048,309.5906,252.1849,300.9464,252.9329,306.5536,247.3257,307.3016,256.9048,309.5906" style="stroke:#3F4E5E;stroke-width:1.0;"/><path d="M120.3041,193.5036 C123.1983,196.4525 126.1055,199.3317 129,202.0986 C168.9474,240.2848 212.1421,275.3644 252.1385,305.9462 " fill="none" style="stroke:#3F4E5E;stroke-width:1.0;stroke-dasharray:7.0,7.0;"/><text fill="#000000" font-family="Arial" font-size="13" lengthAdjust="spacing" textLength="155" x="163" y="233.2925">logical source_id reference</text><text fill="#000000" font-family="Arial" font-size="13" lengthAdjust="spacing" textLength="20" x="235.9048" y="306.7845">0..*</text><text fill="#000000" font-family="Arial" font-size="13" lengthAdjust="spacing" textLength="7" x="121.3041" y="190.6975">1</text><polygon fill="#3F4E5E" points="339,487.171,335,493.171,339,499.171,343,493.171,339,487.171" style="stroke:#3F4E5E;stroke-width:1.0;"/><path d="M339,499.171 C339,517.0574 339,522.8665 339,538.8127 " fill="none" style="stroke:#3F4E5E;stroke-width:1.0;"/><text fill="#000000" font-family="Arial" font-size="13" lengthAdjust="spacing" textLength="49" x="340" y="518.2925">contains</text><text fill="#000000" font-family="Arial" font-size="13" lengthAdjust="spacing" textLength="20" x="318" y="536.0065">0..*</text><text fill="#000000" font-family="Arial" font-size="13" lengthAdjust="spacing" textLength="7" x="331" y="500.3648">1</text><polygon fill="#3F4E5E" points="411.7941,253.9845,419.9744,248.4996,414.4582,249.7533,413.2045,244.2371,411.7941,253.9845" style="stroke:#3F4E5E;stroke-width:1.0;"/><path d="M454.7676,185.7324 C441.7649,206.3838 429.8825,225.2558 414.991,248.9071 " fill="none" style="stroke:#3F4E5E;stroke-width:1.0;stroke-dasharray:7.0,7.0;"/><text fill="#000000" font-family="Arial" font-size="13" lengthAdjust="spacing" textLength="114" x="431" y="233.2925">populates metadata</text><polygon fill="#3F4E5E" points="339,711.0031,343,702.0031,339,706.0031,335,702.0031,339,711.0031" style="stroke:#3F4E5E;stroke-width:1.0;"/><path d="M339,659.2472 C339,675.5647 339,687.5821 339,705.0031 " fill="none" style="stroke:#3F4E5E;stroke-width:1.0;stroke-dasharray:7.0,7.0;"/><text fill="#000000" font-family="Arial" font-size="13" lengthAdjust="spacing" textLength="151" x="340" y="690.2925">converted to ranked result</text><!--SRC=[hLHBRnCn4BxxLmpXLYaH210Y1r0fpQaWqO8u81HDxDdT8LvxyQDjXFZl7UzccqUBk71PsVFwllbcra-wW7MBO77ZSuBOKaA7Ad6o1ATrOFY6IJSmXG-O43vwGrQfk6RNOS0MLgZNTV3PcJDlVO2RXXFj-ME3nj-mgw526_SzXYhCDYsyIv-m5R30QFVyscACy5i1l3_2UBfulNYpE2iU7mo5hVN5ukNvgtEndeRWRmwDVvHgs118UuqtSRZ4H85ysdGKbHhWhdmEcdhKs1-NREOI6CJWXELupi6Enq0rUpVUjbcbw6WYXojBKcRblUqJBEEABQVD72hhCHLw0_vfIApjGA0WiqkFKUd7ymYNcDiMmsQyQj6MN1glNLvPZWsP9OhDOAB4BRqhWNAk_K5Y9GevJID3QQEgI2U-fcN97F9BBhSTwhIqT4ttF7GWyHxYx9eyQx9R7xM8G-FBdKMNg2KxGxUZAT7jVJFKhiWOMQpbppZAlqCeNwvO-fBPN5AKHUi1_tUZqgUWnpcat5dwBiOVEnPNX44tU-WFc_pR88zvFjY0VwWJjG-qjrtRlPuydy1izXOcpsQpaydzjit1-bh4iZiSwQoIlqE4KMDKIJwPJiVaOOhpVicGNLIFYbxGTZ2TxxALrcBv4L64HJMKAM47SlLrhod85a7o4D2jgP0gJgMSJmI1woQ1hyRwwaj3yFNo0ZX2TlmhqqnTKjTleaXKKooy87UcPv0accvPZAvMsyb8c3mAQ4fLEGfyURaGZ4otz2KLoHaeyCSa1eL7eULnOyS5ByhKQTYpEeTUch9HE2jqDxrJ2e7EGTHETYC3bD4PG4bKbHovTjErHARoYWWhkFfymGTCxW00]--></g></svg>