<?xml version="1.0" encoding="us-ascii" standalone="no"?><svg xmlns="http://www.w3.org/2000/svg" xmlns:xlink="http://www.w3.org/1999/xlink" contentStyleType="text/css" height="2304px" preserveAspectRatio="none" style="width:3096px;height:2304px;background:#FFFFFF;" version="1.1" viewBox="0 0 3096 2304" width="3096px" zoomAndPan="magnify"><defs/><g><text fill="#000000" font-family="Verdana" font-size="22" font-weight="bold" lengthAdjust="spacing" textLength="649" x="1222.25" y="37.1182">Agri Watch - Web Ingestion and RAG Question Flow</text><rect fill="#EAF2F8" height="2244.3208" style="stroke:#000000;stroke-width:1.0;" width="149" x="349" y="53.7373"/><text fill="#000000" font-family="Verdana" font-size="13" font-weight="bold" lengthAdjust="spacing" textLength="143" x="352" y="66.8071">FastAPI Application</text><rect fill="#E8F8F5" height="2244.3208" style="stroke:#000000;stroke-width:1.0;" width="753" x="589.5" y="53.7373"/><text fill="#000000" font-family="Verdana" font-size="13" font-weight="bold" lengthAdjust="spacing" textLength="107" x="912.5" y="66.8071">Web Ingestion</text><rect fill="#FCF3CF" height="2244.3208" style="stroke:#000000;stroke-width:1.0;" width="240" x="1364.5" y="53.7373"/><text fill="#000000" font-family="Verdana" font-size="13" font-weight="bold" lengthAdjust="spacing" textLength="123" x="1423" y="66.8071">External Sources</text><rect fill="#F4ECF7" height="2244.3208" style="stroke:#000000;stroke-width:1.0;" width="896" x="1626.5" y="53.7373"/><text fill="#000000" font-family="Verdana" font-size="13" font-weight="bold" lengthAdjust="spacing" textLength="157" x="1996" y="66.8071">Storage and Retrieval</text><rect fill="#FDEDEC" height="2244.3208" style="stroke:#000000;stroke-width:1.0;" width="529" x="2544.5" y="53.7373"/><text fill="#000000" font-family="Verdana" font-size="13" font-weight="bold" lengthAdjust="spacing" textLength="182" x="2718" y="66.8071">Local Answer Generation</text><rect fill="#FFFFFF" height="1104.144" style="stroke:#000000;stroke-width:1.0;" width="10" x="418.5" y="227.9492"/><rect fill="#FFFFFF" height="725.9536" style="stroke:#000000;stroke-width:1.0;" width="10" x="418.5" y="1421.4912"/><rect fill="#FFFFFF" height="1044.5454" style="stroke:#000000;stroke-width:1.0;" width="10" x="673.5" y="257.7485"/><rect fill="#FFFFFF" height="341.3618" style="stroke:#000000;stroke-width:1.0;" width="10" x="1023" y="371.9458"/><rect fill="#FFFFFF" height="331.7925" style="stroke:#000000;stroke-width:1.0;" width="10" x="2003" y="917.9028"/><rect fill="#FFFFFF" height="674.355" style="stroke:#000000;stroke-width:1.0;" width="10" x="2003" y="1451.2905"/><rect fill="#FFFFFF" height="89.3979" style="stroke:#000000;stroke-width:1.0;" width="10" x="2764" y="1948.6489"/><rect fill="#FFFFFF" height="29.7993" style="stroke:#000000;stroke-width:1.0;" width="10" x="2953" y="1978.4482"/><rect fill="#FFFFFF" height="380.9604" style="stroke:#000000;stroke-width:1.0;" width="1047" x="573.5" y="332.3472"/><rect fill="#FFFFFF" height="289.5625" style="stroke:#000000;stroke-width:1.0;" width="1027" x="583.5" y="416.7451"/><rect fill="#FFFFFF" height="126.5659" style="stroke:none;stroke-width:1.0;" width="1027" x="583.5" y="579.7417"/><rect fill="#FFFFFF" height="136.9966" style="stroke:#000000;stroke-width:1.0;" width="1148" x="583.5" y="727.3076"/><rect fill="#FFFFFF" height="379.3911" style="stroke:#000000;stroke-width:1.0;" width="1965" x="583.5" y="878.3042"/><rect fill="#FFFFFF" height="228.3945" style="stroke:#000000;stroke-width:1.0;" width="918" x="1620.5" y="992.5015"/><rect fill="#FFFFFF" height="77.3979" style="stroke:#000000;stroke-width:1.0;" width="588.5" x="1940" y="1076.8994"/><rect fill="#FFFFFF" height="103.3979" style="stroke:#000000;stroke-width:1.0;" width="266" x="1940" y="1628.2871"/><rect fill="#FFFFFF" height="330.1611" style="stroke:#000000;stroke-width:1.0;" width="2729.5" x="350" y="1788.4844"/><rect fill="#FFFFFF" height="266.7632" style="stroke:none;stroke-width:1.0;" width="2729.5" x="350" y="1851.8823"/><line style="stroke:#000000;stroke-width:1.0;" x1="104" x2="104" y1="136.5513" y2="2217.0435"/><line style="stroke:#000000;stroke-width:1.0;" x1="271" x2="271" y1="136.5513" y2="2217.0435"/><line style="stroke:#000000;stroke-width:1.0;" x1="423" x2="423" y1="136.5513" y2="2217.0435"/><line style="stroke:#000000;stroke-width:1.0;" x1="678.5" x2="678.5" y1="136.5513" y2="2217.0435"/><line style="stroke:#000000;stroke-width:1.0;" x1="870" x2="870" y1="136.5513" y2="2217.0435"/><line style="stroke:#000000;stroke-width:1.0;" x1="1028" x2="1028" y1="136.5513" y2="2217.0435"/><line style="stroke:#000000;stroke-width:1.0;" x1="1239.5" x2="1239.5" y1="136.5513" y2="2217.0435"/><line style="stroke:#000000;stroke-width:1.0;" x1="1484.5" x2="1484.5" y1="136.5513" y2="2217.0435"/><line style="stroke:#000000;stroke-width:1.0;" x1="1675.5" x2="1675.5" y1="136.5513" y2="2217.0435"/><line style="stroke:#000000;stroke-width:1.0;" x1="2008" x2="2008" y1="136.5513" y2="2217.0435"/><line style="stroke:#000000;stroke-width:1.0;" x1="2274.5" x2="2274.5" y1="136.5513" y2="2217.0435"/><line style="stroke:#000000;stroke-width:1.0;" x1="2428.5" x2="2428.5" y1="136.5513" y2="2217.0435"/><line style="stroke:#000000;stroke-width:1.0;" x1="2623.5" x2="2623.5" y1="136.5513" y2="2217.0435"/><line style="stroke:#000000;stroke-width:1.0;" x1="2768.5" x2="2768.5" y1="136.5513" y2="2217.0435"/><line style="stroke:#000000;stroke-width:1.0;" x1="2957.5" x2="2957.5" y1="136.5513" y2="2217.0435"/><text fill="#000000" font-family="Verdana" font-size="14" lengthAdjust="spacing" textLength="183" x="10" y="133.6118">Administrator / Scheduler</text><ellipse cx="104.5" cy="67.5366" fill="#FFFFFF" rx="8" ry="8" style="stroke:#000000;stroke-width:1.0;"/><path d="M104.5,75.5366 L104.5,102.5366 M91.5,83.5366 L117.5,83.5366 M104.5,102.5366 L91.5,117.5366 M104.5,102.5366 L117.5,117.5366 " fill="none" style="stroke:#000000;stroke-width:1.0;"/><text fill="#000000" font-family="Verdana" font-size="14" lengthAdjust="spacing" textLength="183" x="10" y="2230.1187">Administrator / Scheduler</text><ellipse cx="104.5" cy="2242.0581" fill="#FFFFFF" rx="8" ry="8" style="stroke:#000000;stroke-width:1.0;"/><path d="M104.5,2250.0581 L104.5,2277.0581 M91.5,2258.0581 L117.5,2258.0581 M104.5,2277.0581 L91.5,2292.0581 M104.5,2277.0581 L117.5,2292.0581 " fill="none" style="stroke:#000000;stroke-width:1.0;"/><text fill="#000000" font-family="Verdana" font-size="14" lengthAdjust="spacing" textLength="118" x="209" y="133.6118">Farmer / Adviser</text><ellipse cx="271" cy="67.5366" fill="#FFFFFF" rx="8" ry="8" style="stroke:#000000;stroke-width:1.0;"/><path d="M271,75.5366 L271,102.5366 M258,83.5366 L284,83.5366 M271,102.5366 L258,117.5366 M271,102.5366 L284,117.5366 " fill="none" style="stroke:#000000;stroke-width:1.0;"/><text fill="#000000" font-family="Verdana" font-size="14" lengthAdjust="spacing" textLength="118" x="209" y="2230.1187">Farmer / Adviser</text><ellipse cx="271" cy="2242.0581" fill="#FFFFFF" rx="8" ry="8" style="stroke:#000000;stroke-width:1.0;"/><path d="M271,2250.0581 L271,2277.0581 M258,2258.0581 L284,2258.0581 M271,2277.0581 L258,2292.0581 M271,2277.0581 L284,2292.0581 " fill="none" style="stroke:#000000;stroke-width:1.0;"/><rect fill="#FFFFFF" height="31.0146" rx="2.5" ry="2.5" style="stroke:#000000;stroke-width:1.0;" width="91" x="378" y="104.5366"/><text fill="#000000" font-family="Verdana" font-size="14" lengthAdjust="spacing" textLength="77" x="385" y="125.6118">API Routes</text><rect fill="#FFFFFF" height="31.0146" rx="2.5" ry="2.5" style="stroke:#000000;stroke-width:1.0;" width="91" x="378" y="2216.0435"/><text fill="#000000" font-family="Verdana" font-size="14" lengthAdjust="spacing" textLength="77" x="385" y="2237.1187">API Routes</text><rect fill="#FFFFFF" height="31.0146" rx="2.5" ry="2.5" style="stroke:#000000;stroke-width:1.0;" width="134" x="611.5" y="104.5366"/><text fill="#000000" font-family="Verdana" font-size="14" lengthAdjust="spacing" textLength="120" x="618.5" y="125.6118">IngestionPipeline</text><rect fill="#FFFFFF" height="31.0146" rx="2.5" ry="2.5" style="stroke:#000000;stroke-width:1.0;" width="134" x="611.5" y="2216.0435"/><text fill="#000000" font-family="Verdana" font-size="14" lengthAdjust="spacing" textLength="120" x="618.5" y="2237.1187">IngestionPipeline</text><rect fill="#FFFFFF" height="31.0146" rx="2.5" ry="2.5" style="stroke:#000000;stroke-width:1.0;" width="125" x="808" y="104.5366"/><text fill="#000000" font-family="Verdana" font-size="14" lengthAdjust="spacing" textLength="111" x="815" y="125.6118">Source Registry</text><rect fill="#FFFFFF" height="31.0146" rx="2.5" ry="2.5" style="stroke:#000000;stroke-width:1.0;" width="125" x="808" y="2216.0435"/><text fill="#000000" font-family="Verdana" font-size="14" lengthAdjust="spacing" textLength="111" x="815" y="2237.1187">Source Registry</text><rect fill="#FFFFFF" height="31.0146" rx="2.5" ry="2.5" style="stroke:#000000;stroke-width:1.0;" width="98" x="979" y="104.5366"/><text fill="#000000" font-family="Verdana" font-size="14" lengthAdjust="spacing" textLength="84" x="986" y="125.6118">RSSScraper</text><rect fill="#FFFFFF" height="31.0146" rx="2.5" ry="2.5" style="stroke:#000000;stroke-width:1.0;" width="98" x="979" y="2216.0435"/><text fill="#000000" font-family="Verdana" font-size="14" lengthAdjust="spacing" textLength="84" x="986" y="2237.1187">RSSScraper</text><rect fill="#FFFFFF" height="31.0146" rx="2.5" ry="2.5" style="stroke:#000000;stroke-width:1.0;" width="161" x="1159.5" y="104.5366"/><text fill="#000000" font-family="Verdana" font-size="14" lengthAdjust="spacing" textLength="147" x="1166.5" y="125.6118">Classification Service</text><rect fill="#FFFFFF" height="31.0146" rx="2.5" ry="2.5" style="stroke:#000000;stroke-width:1.0;" width="161" x="1159.5" y="2216.0435"/><text fill="#000000" font-family="Verdana" font-size="14" lengthAdjust="spacing" textLength="147" x="1166.5" y="2237.1187">Classification Service</text><rect fill="#FFFFFF" height="31.0146" rx="2.5" ry="2.5" style="stroke:#000000;stroke-width:1.0;" width="196" x="1386.5" y="104.5366"/><text fill="#000000" font-family="Verdana" font-size="14" lengthAdjust="spacing" textLength="182" x="1393.5" y="125.6118">Official RSS / Atom Feeds</text><rect fill="#FFFFFF" height="31.0146" rx="2.5" ry="2.5" style="stroke:#000000;stroke-width:1.0;" width="196" x="1386.5" y="2216.0435"/><text fill="#000000" font-family="Verdana" font-size="14" lengthAdjust="spacing" textLength="182" x="1393.5" y="2237.1187">Official RSS / Atom Feeds</text><text fill="#000000" font-family="Verdana" font-size="14" lengthAdjust="spacing" textLength="85" x="1630.5" y="133.6118">SQLiteStore</text><path d="M1658,83.5366 C1658,73.5366 1676,73.5366 1676,73.5366 C1676,73.5366 1694,73.5366 1694,83.5366 L1694,109.5366 C1694,119.5366 1676,119.5366 1676,119.5366 C1676,119.5366 1658,119.5366 1658,109.5366 L1658,83.5366 " fill="#FFFFFF" style="stroke:#000000;stroke-width:1.5;"/><path d="M1658,83.5366 C1658,93.5366 1676,93.5366 1676,93.5366 C1676,93.5366 1694,93.5366 1694,83.5366 " fill="none" style="stroke:#000000;stroke-width:1.5;"/><text fill="#000000" font-family="Verdana" font-size="14" lengthAdjust="spacing" textLength="85" x="1630.5" y="2230.1187">SQLiteStore</text><path d="M1658,2243.0581 C1658,2233.0581 1676,2233.0581 1676,2233.0581 C1676,2233.0581 1694,2233.0581 1694,2243.0581 L1694,2269.0581 C1694,2279.0581 1676,2279.0581 1676,2279.0581 C1676,2279.0581 1658,2279.0581 1658,2269.0581 L1658,2243.0581 " fill="#FFFFFF" style="stroke:#000000;stroke-width:1.5;"/><path d="M1658,2243.0581 C1658,2253.0581 1676,2253.0581 1676,2253.0581 C1676,2253.0581 1694,2253.0581 1694,2243.0581 " fill="none" style="stroke:#000000;stroke-width:1.5;"/><rect fill="#FFFFFF" height="31.0146" rx="2.5" ry="2.5" style="stroke:#000000;stroke-width:1.0;" width="80" x="1968" y="104.5366"/><text fill="#000000" font-family="Verdana" font-size="14" lengthAdjust="spacing" textLength="66" x="1975" y="125.6118">LocalRAG</text><rect fill="#FFFFFF" height="31.0146" rx="2.5" ry="2.5" style="stroke:#000000;stroke-width:1.0;" width="80" x="1968" y="2216.0435"/><text fill="#000000" font-family="Verdana" font-size="14" lengthAdjust="spacing" textLength="66" x="1975" y="2237.1187">LocalRAG</text><rect fill="#FFFFFF" height="31.0146" rx="2.5" ry="2.5" style="stroke:#000000;stroke-width:1.0;" width="73" x="2238.5" y="104.5366"/><text fill="#000000" font-family="Verdana" font-size="14" lengthAdjust="spacing" textLength="59" x="2245.5" y="125.6118">Chunker</text><rect fill="#FFFFFF" height="31.0146" rx="2.5" ry="2.5" style="stroke:#000000;stroke-width:1.0;" width="73" x="2238.5" y="2216.0435"/><text fill="#000000" font-family="Verdana" font-size="14" lengthAdjust="spacing" textLength="59" x="2245.5" y="2237.1187">Chunker</text><rect fill="#FFFFFF" height="31.0146" rx="2.5" ry="2.5" style="stroke:#000000;stroke-width:1.0;" width="143" x="2357.5" y="104.5366"/><text fill="#000000" font-family="Verdana" font-size="14" lengthAdjust="spacing" textLength="129" x="2364.5" y="125.6118">HashingEmbedder</text><rect fill="#FFFFFF" height="31.0146" rx="2.5" ry="2.5" style="stroke:#000000;stroke-width:1.0;" width="143" x="2357.5" y="2216.0435"/><text fill="#000000" font-family="Verdana" font-size="14" lengthAdjust="spacing" textLength="129" x="2364.5" y="2237.1187">HashingEmbedder</text><rect fill="#FFFFFF" height="31.0146" rx="2.5" ry="2.5" style="stroke:#000000;stroke-width:1.0;" width="115" x="2566.5" y="104.5366"/><text fill="#000000" font-family="Verdana" font-size="14" lengthAdjust="spacing" textLength="101" x="2573.5" y="125.6118">PromptBuilder</text><rect fill="#FFFFFF" height="31.0146" rx="2.5" ry="2.5" style="stroke:#000000;stroke-width:1.0;" width="115" x="2566.5" y="2216.0435"/><text fill="#000000" font-family="Verdana" font-size="14" lengthAdjust="spacing" textLength="101" x="2573.5" y="2237.1187">PromptBuilder</text><rect fill="#FFFFFF" height="31.0146" rx="2.5" ry="2.5" style="stroke:#000000;stroke-width:1.0;" width="83" x="2727.5" y="104.5366"/><text fill="#000000" font-family="Verdana" font-size="14" lengthAdjust="spacing" textLength="69" x="2734.5" y="125.6118">LLMClient</text><rect fill="#FFFFFF" height="31.0146" rx="2.5" ry="2.5" style="stroke:#000000;stroke-width:1.0;" width="83" x="2727.5" y="2216.0435"/><text fill="#000000" font-family="Verdana" font-size="14" lengthAdjust="spacing" textLength="69" x="2734.5" y="2237.1187">LLMClient</text><rect fill="#FFFFFF" height="31.0146" rx="2.5" ry="2.5" style="stroke:#000000;stroke-width:1.0;" width="187" x="2864.5" y="104.5366"/><text fill="#000000" font-family="Verdana" font-size="14" lengthAdjust="spacing" textLength="173" x="2871.5" y="125.6118">Local GGUF Llama Model</text><rect fill="#FFFFFF" height="31.0146" rx="2.5" ry="2.5" style="stroke:#000000;stroke-width:1.0;" width="187" x="2864.5" y="2216.0435"/><text fill="#000000" font-family="Verdana" font-size="14" lengthAdjust="spacing" textLength="173" x="2871.5" y="2237.1187">Local GGUF Llama Model</text><rect fill="#FFFFFF" height="1104.144" style="stroke:#000000;stroke-width:1.0;" width="10" x="418.5" y="227.9492"/><rect fill="#FFFFFF" height="725.9536" style="stroke:#000000;stroke-width:1.0;" width="10" x="418.5" y="1421.4912"/><rect fill="#FFFFFF" height="1044.5454" style="stroke:#000000;stroke-width:1.0;" width="10" x="673.5" y="257.7485"/><rect fill="#FFFFFF" height="341.3618" style="stroke:#000000;stroke-width:1.0;" width="10" x="1023" y="371.9458"/><rect fill="#FFFFFF" height="331.7925" style="stroke:#000000;stroke-width:1.0;" width="10" x="2003" y="917.9028"/><rect fill="#FFFFFF" height="674.355" style="stroke:#000000;stroke-width:1.0;" width="10" x="2003" y="1451.2905"/><rect fill="#FFFFFF" height="89.3979" style="stroke:#000000;stroke-width:1.0;" width="10" x="2764" y="1948.6489"/><rect fill="#FFFFFF" height="29.7993" style="stroke:#000000;stroke-width:1.0;" width="10" x="2953" y="1978.4482"/><rect fill="#FFFFFF" height="3" style="stroke:#FFFFFF;stroke-width:1.0;" width="3084.5" x="5" y="167.4509"/><line style="stroke:#000000;stroke-width:0.5;" x1="5" x2="3089.5" y1="167.4509" y2="167.4509"/><line style="stroke:#000000;stroke-width:0.5;" x1="5" x2="3089.5" y1="170.4509" y2="170.4509"/><rect fill="#FFFFFF" height="23.7993" style="stroke:#000000;stroke-width:1.0;" width="136" x="1479.25" y="156.5513"/><text fill="#000000" font-family="Verdana" font-size="13" font-weight="bold" lengthAdjust="spacing" textLength="118" x="1485.25" y="173.6211">Article ingestion</text><polygon fill="#000000" points="406.5,223.9492,416.5,227.9492,406.5,231.9492,410.5,227.9492" style="stroke:#000000;stroke-width:1.0;"/><line style="stroke:#000000;stroke-width:1.0;" x1="104.5" x2="412.5" y1="227.9492" y2="227.9492"/><text fill="#000000" font-family="Verdana" font-size="13" lengthAdjust="spacing" textLength="86" x="218.5" y="207.4204">POST /ingest</text><text fill="#000000" font-family="Verdana" font-size="13" lengthAdjust="spacing" textLength="279" x="122" y="223.2197">source_ids, limit_per_source, rebuild_rag</text><polygon fill="#000000" points="661.5,253.7485,671.5,257.7485,661.5,261.7485,665.5,257.7485" style="stroke:#000000;stroke-width:1.0;"/><line style="stroke:#000000;stroke-width:1.0;" x1="428.5" x2="667.5" y1="257.7485" y2="257.7485"/><text fill="#000000" font-family="Verdana" font-size="13" lengthAdjust="spacing" textLength="49" x="526.5" y="253.019">run(...)</text><polygon fill="#000000" points="858.5,283.5479,868.5,287.5479,858.5,291.5479,862.5,287.5479" style="stroke:#000000;stroke-width:1.0;"/><line style="stroke:#000000;stroke-width:1.0;" x1="683.5" x2="864.5" y1="287.5479" y2="287.5479"/><text fill="#000000" font-family="Verdana" font-size="13" lengthAdjust="spacing" textLength="163" x="695.5" y="282.8184">get_sources(source_ids)</text><polygon fill="#000000" points="694.5,313.3472,684.5,317.3472,694.5,321.3472,690.5,317.3472" style="stroke:#000000;stroke-width:1.0;"/><line style="stroke:#000000;stroke-width:1.0;stroke-dasharray:2.0,2.0;" x1="688.5" x2="869.5" y1="317.3472" y2="317.3472"/><text fill="#000000" font-family="Verdana" font-size="13" lengthAdjust="spacing" textLength="155" x="699.5" y="312.6177">enabled Source objects</text><path d="M573.5,332.3472 L649.5,332.3472 L649.5,340.1465 L639.5,350.1465 L573.5,350.1465 L573.5,332.3472 " fill="#FFFFFF" style="stroke:#000000;stroke-width:1.0;"/><rect fill="none" height="380.9604" style="stroke:#000000;stroke-width:1.0;" width="1047" x="573.5" y="332.3472"/><text fill="#000000" font-family="Verdana" font-size="13" font-weight="bold" lengthAdjust="spacing" textLength="31" x="588.5" y="346.417">loop</text><text fill="#000000" font-family="Verdana" font-size="11" font-weight="bold" lengthAdjust="spacing" textLength="180" x="664.5" y="345.4063">[For each configured source]</text><polygon fill="#000000" points="1011,367.9458,1021,371.9458,1011,375.9458,1015,371.9458" style="stroke:#000000;stroke-width:1.0;"/><line style="stroke:#000000;stroke-width:1.0;" x1="683.5" x2="1017" y1="371.9458" y2="371.9458"/><text fill="#000000" font-family="Verdana" font-size="13" lengthAdjust="spacing" textLength="100" x="803.25" y="367.2163">scrape(source)</text><polygon fill="#000000" points="1472.5,397.7451,1482.5,401.7451,1472.5,405.7451,1476.5,401.7451" style="stroke:#000000;stroke-width:1.0;"/><line style="stroke:#000000;stroke-width:1.0;" x1="1033" x2="1478.5" y1="401.7451" y2="401.7451"/><text fill="#000000" font-family="Verdana" font-size="13" lengthAdjust="spacing" textLength="137" x="1190.25" y="397.0156">HTTP GET source.url</text><path d="M583.5,416.7451 L647.5,416.7451 L647.5,424.5444 L637.5,434.5444 L583.5,434.5444 L583.5,416.7451 " fill="#FFFFFF" style="stroke:#000000;stroke-width:1.0;"/><rect fill="none" height="289.5625" style="stroke:#000000;stroke-width:1.0;" width="1027" x="583.5" y="416.7451"/><text fill="#000000" font-family="Verdana" font-size="13" font-weight="bold" lengthAdjust="spacing" textLength="19" x="598.5" y="430.8149">alt</text><text fill="#000000" font-family="Verdana" font-size="11" font-weight="bold" lengthAdjust="spacing" textLength="152" x="662.5" y="429.8042">[Feed request succeeds]</text><polygon fill="#000000" points="1044,452.3438,1034,456.3438,1044,460.3438,1040,456.3438" style="stroke:#000000;stroke-width:1.0;"/><line style="stroke:#000000;stroke-width:1.0;stroke-dasharray:2.0,2.0;" x1="1038" x2="1483.5" y1="456.3438" y2="456.3438"/><text fill="#000000" font-family="Verdana" font-size="13" lengthAdjust="spacing" textLength="118" x="1199.75" y="451.6143">RSS or Atom XML</text><line style="stroke:#000000;stroke-width:1.0;" x1="1033" x2="1075" y1="486.1431" y2="486.1431"/><line style="stroke:#000000;stroke-width:1.0;" x1="1075" x2="1075" y1="486.1431" y2="499.1431"/><line style="stroke:#000000;stroke-width:1.0;" x1="1034" x2="1075" y1="499.1431" y2="499.1431"/><polygon fill="#000000" points="1044,495.1431,1034,499.1431,1044,503.1431,1040,499.1431" style="stroke:#000000;stroke-width:1.0;"/><text fill="#000000" font-family="Verdana" font-size="13" lengthAdjust="spacing" textLength="109" x="1040" y="481.4136">detect feed type</text><line style="stroke:#000000;stroke-width:1.0;" x1="1033" x2="1075" y1="528.9424" y2="528.9424"/><line style="stroke:#000000;stroke-width:1.0;" x1="1075" x2="1075" y1="528.9424" y2="541.9424"/><line style="stroke:#000000;stroke-width:1.0;" x1="1034" x2="1075" y1="541.9424" y2="541.9424"/><polygon fill="#000000" points="1044,537.9424,1034,541.9424,1044,545.9424,1040,541.9424" style="stroke:#000000;stroke-width:1.0;"/><text fill="#000000" font-family="Verdana" font-size="13" lengthAdjust="spacing" textLength="188" x="1040" y="524.2129">parse and normalize entries</text><polygon fill="#000000" points="694.5,567.7417,684.5,571.7417,694.5,575.7417,690.5,571.7417" style="stroke:#000000;stroke-width:1.0;"/><line style="stroke:#000000;stroke-width:1.0;stroke-dasharray:2.0,2.0;" x1="688.5" x2="1022" y1="571.7417" y2="571.7417"/><text fill="#000000" font-family="Verdana" font-size="13" lengthAdjust="spacing" textLength="199" x="753.75" y="567.0122">FeedItem[] / ScrapedArticle[]</text><line style="stroke:#000000;stroke-width:1.0;stroke-dasharray:2.0,2.0;" x1="583.5" x2="1610.5" y1="580.7417" y2="580.7417"/><text fill="#000000" font-family="Verdana" font-size="11" font-weight="bold" lengthAdjust="spacing" textLength="232" x="588.5" y="591.8008">[Timeout, HTTP error, or invalid XML]</text><polygon fill="#000000" points="1044,612.9097,1034,616.9097,1044,620.9097,1040,616.9097" style="stroke:#000000;stroke-width:1.0;"/><line style="stroke:#000000;stroke-width:1.0;stroke-dasharray:2.0,2.0;" x1="1038" x2="1483.5" y1="616.9097" y2="616.9097"/><text fill="#000000" font-family="Verdana" font-size="13" lengthAdjust="spacing" textLength="99" x="1209.25" y="612.1802">error response</text><polygon fill="#000000" points="694.5,642.709,684.5,646.709,694.5,650.709,690.5,646.709" style="stroke:#000000;stroke-width:1.0;"/><line style="stroke:#000000;stroke-width:1.0;stroke-dasharray:2.0,2.0;" x1="688.5" x2="1022" y1="646.709" y2="646.709"/><text fill="#000000" font-family="Verdana" font-size="13" lengthAdjust="spacing" textLength="83" x="811.75" y="641.9795">source error</text><path d="M688,659.709 L688,700.709 L868,700.709 L868,669.709 L858,659.709 L688,659.709 " fill="#FFFFFF" style="stroke:#000000;stroke-width:1.0;"/><path d="M858,659.709 L858,669.709 L868,669.709 L858,659.709 " fill="#FFFFFF" style="stroke:#000000;stroke-width:1.0;"/><text fill="#000000" font-family="Verdana" font-size="13" lengthAdjust="spacing" textLength="148" x="694" y="677.7788">The error is recorded.</text><text fill="#000000" font-family="Verdana" font-size="13" lengthAdjust="spacing" textLength="159" x="694" y="693.5781">Other sources continue.</text><path d="M583.5,727.3076 L659.5,727.3076 L659.5,735.1069 L649.5,745.1069 L583.5,745.1069 L583.5,727.3076 " fill="#FFFFFF" style="stroke:#000000;stroke-width:1.0;"/><rect fill="none" height="136.9966" style="stroke:#000000;stroke-width:1.0;" width="1148" x="583.5" y="727.3076"/><text fill="#000000" font-family="Verdana" font-size="13" font-weight="bold" lengthAdjust="spacing" textLength="31" x="598.5" y="741.3774">loop</text><text fill="#000000" font-family="Verdana" font-size="11" font-weight="bold" lengthAdjust="spacing" textLength="280" x="674.5" y="740.3667">[For each scraped article within source limit]</text><polygon fill="#000000" points="1228,762.9063,1238,766.9063,1228,770.9063,1232,766.9063" style="stroke:#000000;stroke-width:1.0;"/><line style="stroke:#000000;stroke-width:1.0;" x1="683.5" x2="1234" y1="766.9063" y2="766.9063"/><text fill="#000000" font-family="Verdana" font-size="13" lengthAdjust="spacing" textLength="254" x="834.75" y="762.1768">classify_text(title, summary, content)</text><polygon fill="#000000" points="694.5,792.7056,684.5,796.7056,694.5,800.7056,690.5,796.7056" style="stroke:#000000;stroke-width:1.0;"/><line style="stroke:#000000;stroke-width:1.0;stroke-dasharray:2.0,2.0;" x1="688.5" x2="1239" y1="796.7056" y2="796.7056"/><text fill="#000000" font-family="Verdana" font-size="13" lengthAdjust="spacing" textLength="296" x="813.75" y="791.9761">category, confidence, effective date, impact</text><polygon fill="#000000" points="1664,822.5049,1674,826.5049,1664,830.5049,1668,826.5049" style="stroke:#000000;stroke-width:1.0;"/><line style="stroke:#000000;stroke-width:1.0;" x1="683.5" x2="1670" y1="826.5049" y2="826.5049"/><text fill="#000000" font-family="Verdana" font-size="13" lengthAdjust="spacing" textLength="147" x="1106.25" y="821.7754">upsert_article(Article)</text><polygon fill="#000000" points="694.5,852.3042,684.5,856.3042,694.5,860.3042,690.5,856.3042" style="stroke:#000000;stroke-width:1.0;"/><line style="stroke:#000000;stroke-width:1.0;stroke-dasharray:2.0,2.0;" x1="688.5" x2="1675" y1="856.3042" y2="856.3042"/><text fill="#000000" font-family="Verdana" font-size="13" lengthAdjust="spacing" textLength="62" x="1148.75" y="851.5747">article_id</text><path d="M583.5,878.3042 L652.5,878.3042 L652.5,886.1035 L642.5,896.1035 L583.5,896.1035 L583.5,878.3042 " fill="#FFFFFF" style="stroke:#000000;stroke-width:1.0;"/><rect fill="none" height="379.3911" style="stroke:#000000;stroke-width:1.0;" width="1965" x="583.5" y="878.3042"/><text fill="#000000" font-family="Verdana" font-size="13" font-weight="bold" lengthAdjust="spacing" textLength="24" x="598.5" y="892.374">opt</text><text fill="#000000" font-family="Verdana" font-size="11" font-weight="bold" lengthAdjust="spacing" textLength="127" x="667.5" y="891.3633">[rebuild_rag = true]</text><polygon fill="#000000" points="1991,913.9028,2001,917.9028,1991,921.9028,1995,917.9028" style="stroke:#000000;stroke-width:1.0;"/><line style="stroke:#000000;stroke-width:1.0;" x1="683.5" x2="1997" y1="917.9028" y2="917.9028"/><text fill="#000000" font-family="Verdana" font-size="13" lengthAdjust="spacing" textLength="102" x="1292.25" y="913.1733">rebuild_index()</text><polygon fill="#000000" points="1687,943.7021,1677,947.7021,1687,951.7021,1683,947.7021" style="stroke:#000000;stroke-width:1.0;"/><line style="stroke:#000000;stroke-width:1.0;" x1="1681" x2="2002" y1="947.7021" y2="947.7021"/><text fill="#000000" font-family="Verdana" font-size="13" lengthAdjust="spacing" textLength="170" x="1754.5" y="942.9727">list_articles(limit=10000)</text><polygon fill="#000000" points="1991,973.5015,2001,977.5015,1991,981.5015,1995,977.5015" style="stroke:#000000;stroke-width:1.0;"/><line style="stroke:#000000;stroke-width:1.0;stroke-dasharray:2.0,2.0;" x1="1676" x2="1997" y1="977.5015" y2="977.5015"/><text fill="#000000" font-family="Verdana" font-size="13" lengthAdjust="spacing" textLength="96" x="1791.5" y="972.772">stored articles</text><path d="M1620.5,992.5015 L1696.5,992.5015 L1696.5,1000.3008 L1686.5,1010.3008 L1620.5,1010.3008 L1620.5,992.5015 " fill="#FFFFFF" style="stroke:#000000;stroke-width:1.0;"/><rect fill="none" height="228.3945" style="stroke:#000000;stroke-width:1.0;" width="918" x="1620.5" y="992.5015"/><text fill="#000000" font-family="Verdana" font-size="13" font-weight="bold" lengthAdjust="spacing" textLength="31" x="1635.5" y="1006.5713">loop</text><text fill="#000000" font-family="Verdana" font-size="11" font-weight="bold" lengthAdjust="spacing" textLength="150" x="1711.5" y="1005.5605">[For each stored article]</text><polygon fill="#000000" points="2263,1028.1001,2273,1032.1001,2263,1036.1001,2267,1032.1001" style="stroke:#000000;stroke-width:1.0;"/><line style="stroke:#000000;stroke-width:1.0;" x1="2013" x2="2269" y1="1032.1001" y2="1032.1001"/><text fill="#000000" font-family="Verdana" font-size="13" lengthAdjust="spacing" textLength="238" x="2025" y="1027.3706">chunk_text(article.searchable_text)</text><polygon fill="#000000" points="2024,1057.8994,2014,1061.8994,2024,1065.8994,2020,1061.8994" style="stroke:#000000;stroke-width:1.0;"/><line style="stroke:#000000;stroke-width:1.0;stroke-dasharray:2.0,2.0;" x1="2018" x2="2274" y1="1061.8994" y2="1061.8994"/><text fill="#000000" font-family="Verdana" font-size="13" lengthAdjust="spacing" textLength="129" x="2079.5" y="1057.1699">overlapping chunks</text><path d="M1940,1076.8994 L2016,1076.8994 L2016,1084.6987 L2006,1094.6987 L1940,1094.6987 L1940,1076.8994 " fill="#FFFFFF" style="stroke:#000000;stroke-width:1.0;"/><rect fill="none" height="77.3979" style="stroke:#000000;stroke-width:1.0;" width="588.5" x="1940" y="1076.8994"/><text fill="#000000" font-family="Verdana" font-size="13" font-weight="bold" lengthAdjust="spacing" textLength="31" x="1955" y="1090.9692">loop</text><text fill="#000000" font-family="Verdana" font-size="11" font-weight="bold" lengthAdjust="spacing" textLength="105" x="2031" y="1089.9585">[For each chunk]</text><polygon fill="#000000" points="2417,1112.498,2427,1116.498,2417,1120.498,2421,1116.498" style="stroke:#000000;stroke-width:1.0;"/><line style="stroke:#000000;stroke-width:1.0;" x1="2013" x2="2423" y1="1116.498" y2="1116.498"/><text fill="#000000" font-family="Verdana" font-size="13" lengthAdjust="spacing" textLength="96" x="2173" y="1111.7686">embed(chunk)</text><polygon fill="#000000" points="2024,1142.2974,2014,1146.2974,2024,1150.2974,2020,1146.2974" style="stroke:#000000;stroke-width:1.0;"/><line style="stroke:#000000;stroke-width:1.0;stroke-dasharray:2.0,2.0;" x1="2018" x2="2428" y1="1146.2974" y2="1146.2974"/><text fill="#000000" font-family="Verdana" font-size="13" lengthAdjust="spacing" textLength="121" x="2160.5" y="1141.5679">normalized vector</text><polygon fill="#000000" points="1687,1179.0967,1677,1183.0967,1687,1187.0967,1683,1183.0967" style="stroke:#000000;stroke-width:1.0;"/><line style="stroke:#000000;stroke-width:1.0;" x1="1681" x2="2002" y1="1183.0967" y2="1183.0967"/><text fill="#000000" font-family="Verdana" font-size="13" lengthAdjust="spacing" textLength="303" x="1688" y="1178.3672">replace_chunks(article_id, chunks + vectors)</text><polygon fill="#000000" points="1991,1208.896,2001,1212.896,1991,1216.896,1995,1212.896" style="stroke:#000000;stroke-width:1.0;"/><line style="stroke:#000000;stroke-width:1.0;stroke-dasharray:2.0,2.0;" x1="1676" x2="1997" y1="1212.896" y2="1212.896"/><text fill="#000000" font-family="Verdana" font-size="13" lengthAdjust="spacing" textLength="90" x="1794.5" y="1208.1665">chunks saved</text><polygon fill="#000000" points="694.5,1245.6953,684.5,1249.6953,694.5,1253.6953,690.5,1249.6953" style="stroke:#000000;stroke-width:1.0;"/><line style="stroke:#000000;stroke-width:1.0;stroke-dasharray:2.0,2.0;" x1="688.5" x2="2007" y1="1249.6953" y2="1249.6953"/><text fill="#000000" font-family="Verdana" font-size="13" lengthAdjust="spacing" textLength="220" x="1235.75" y="1244.9658">indexed article and chunk counts</text><polygon fill="#000000" points="439.5,1298.2939,429.5,1302.2939,439.5,1306.2939,435.5,1302.2939" style="stroke:#000000;stroke-width:1.0;"/><line style="stroke:#000000;stroke-width:1.0;stroke-dasharray:2.0,2.0;" x1="433.5" x2="677.5" y1="1302.2939" y2="1302.2939"/><text fill="#000000" font-family="Verdana" font-size="13" lengthAdjust="spacing" textLength="105" x="501" y="1281.7651">IngestionReport</text><text fill="#000000" font-family="Verdana" font-size="13" lengthAdjust="spacing" textLength="214" x="446.5" y="1297.5645">scraped, saved, indexed, errors</text><polygon fill="#000000" points="115.5,1328.0933,105.5,1332.0933,115.5,1336.0933,111.5,1332.0933" style="stroke:#000000;stroke-width:1.0;"/><line style="stroke:#000000;stroke-width:1.0;stroke-dasharray:2.0,2.0;" x1="109.5" x2="422.5" y1="1332.0933" y2="1332.0933"/><text fill="#000000" font-family="Verdana" font-size="13" lengthAdjust="spacing" textLength="143" x="192.5" y="1327.3638">JSON ingestion result</text><rect fill="#FFFFFF" height="3" style="stroke:#FFFFFF;stroke-width:1.0;" width="3084.5" x="5" y="1360.9929"/><line style="stroke:#000000;stroke-width:0.5;" x1="5" x2="3089.5" y1="1360.9929" y2="1360.9929"/><line style="stroke:#000000;stroke-width:0.5;" x1="5" x2="3089.5" y1="1363.9929" y2="1363.9929"/><rect fill="#FFFFFF" height="23.7993" style="stroke:#000000;stroke-width:1.0;" width="170" x="1462.25" y="1350.0933"/><text fill="#000000" font-family="Verdana" font-size="13" font-weight="bold" lengthAdjust="spacing" textLength="152" x="1468.25" y="1367.1631">User asks a question</text><polygon fill="#000000" points="406.5,1417.4912,416.5,1421.4912,406.5,1425.4912,410.5,1421.4912" style="stroke:#000000;stroke-width:1.0;"/><line style="stroke:#000000;stroke-width:1.0;" x1="271" x2="412.5" y1="1421.4912" y2="1421.4912"/><text fill="#000000" font-family="Verdana" font-size="13" lengthAdjust="spacing" textLength="97" x="296.25" y="1400.9624">POST /rag/ask</text><text fill="#000000" font-family="Verdana" font-size="13" lengthAdjust="spacing" textLength="85" x="302.25" y="1416.7617">query, top_k</text><polygon fill="#000000" points="1991,1447.2905,2001,1451.2905,1991,1455.2905,1995,1451.2905" style="stroke:#000000;stroke-width:1.0;"/><line style="stroke:#000000;stroke-width:1.0;" x1="428.5" x2="1997" y1="1451.2905" y2="1451.2905"/><text fill="#000000" font-family="Verdana" font-size="13" lengthAdjust="spacing" textLength="145" x="1143.25" y="1446.561">answer(query, top_k)</text><line style="stroke:#000000;stroke-width:1.0;" x1="2013" x2="2055" y1="1481.0898" y2="1481.0898"/><line style="stroke:#000000;stroke-width:1.0;" x1="2055" x2="2055" y1="1481.0898" y2="1494.0898"/><line style="stroke:#000000;stroke-width:1.0;" x1="2014" x2="2055" y1="1494.0898" y2="1494.0898"/><polygon fill="#000000" points="2024,1490.0898,2014,1494.0898,2024,1498.0898,2020,1494.0898" style="stroke:#000000;stroke-width:1.0;"/><text fill="#000000" font-family="Verdana" font-size="13" lengthAdjust="spacing" textLength="218" x="2020" y="1476.3604">infer category filters from query</text><polygon fill="#000000" points="2417,1519.8892,2427,1523.8892,2417,1527.8892,2421,1523.8892" style="stroke:#000000;stroke-width:1.0;"/><line style="stroke:#000000;stroke-width:1.0;" x1="2013" x2="2423" y1="1523.8892" y2="1523.8892"/><text fill="#000000" font-family="Verdana" font-size="13" lengthAdjust="spacing" textLength="95" x="2173.5" y="1519.1597">embed(query)</text><polygon fill="#000000" points="2024,1549.6885,2014,1553.6885,2024,1557.6885,2020,1553.6885" style="stroke:#000000;stroke-width:1.0;"/><line style="stroke:#000000;stroke-width:1.0;stroke-dasharray:2.0,2.0;" x1="2018" x2="2428" y1="1553.6885" y2="1553.6885"/><text fill="#000000" font-family="Verdana" font-size="13" lengthAdjust="spacing" textLength="85" x="2178.5" y="1548.959">query vector</text><polygon fill="#000000" points="1687,1579.4878,1677,1583.4878,1687,1587.4878,1683,1583.4878" style="stroke:#000000;stroke-width:1.0;"/><line style="stroke:#000000;stroke-width:1.0;" x1="1681" x2="2002" y1="1583.4878" y2="1583.4878"/><text fill="#000000" font-family="Verdana" font-size="13" lengthAdjust="spacing" textLength="86" x="1796.5" y="1578.7583">list_chunks()</text><polygon fill="#000000" points="1991,1609.2871,2001,1613.2871,1991,1617.2871,1995,1613.2871" style="stroke:#000000;stroke-width:1.0;"/><line style="stroke:#000000;stroke-width:1.0;stroke-dasharray:2.0,2.0;" x1="1676" x2="1997" y1="1613.2871" y2="1613.2871"/><text fill="#000000" font-family="Verdana" font-size="13" lengthAdjust="spacing" textLength="249" x="1715" y="1608.5576">chunk text, article metadata, vectors</text><path d="M1940,1628.2871 L2016,1628.2871 L2016,1636.0864 L2006,1646.0864 L1940,1646.0864 L1940,1628.2871 " fill="#FFFFFF" style="stroke:#000000;stroke-width:1.0;"/><rect fill="none" height="103.3979" style="stroke:#000000;stroke-width:1.0;" width="266" x="1940" y="1628.2871"/><text fill="#000000" font-family="Verdana" font-size="13" font-weight="bold" lengthAdjust="spacing" textLength="31" x="1955" y="1642.3569">loop</text><text fill="#000000" font-family="Verdana" font-size="11" font-weight="bold" lengthAdjust="spacing" textLength="169" x="2031" y="1641.3462">[For each candidate chunk]</text><line style="stroke:#000000;stroke-width:1.0;" x1="2013" x2="2055" y1="1667.8857" y2="1667.8857"/><line style="stroke:#000000;stroke-width:1.0;" x1="2055" x2="2055" y1="1667.8857" y2="1680.8857"/><line style="stroke:#000000;stroke-width:1.0;" x1="2014" x2="2055" y1="1680.8857" y2="1680.8857"/><polygon fill="#000000" points="2024,1676.8857,2014,1680.8857,2024,1684.8857,2020,1680.8857" style="stroke:#000000;stroke-width:1.0;"/><text fill="#000000" font-family="Verdana" font-size="13" lengthAdjust="spacing" textLength="136" x="2020" y="1663.1563">apply category filter</text><line style="stroke:#000000;stroke-width:1.0;" x1="2013" x2="2055" y1="1710.6851" y2="1710.6851"/><line style="stroke:#000000;stroke-width:1.0;" x1="2055" x2="2055" y1="1710.6851" y2="1723.6851"/><line style="stroke:#000000;stroke-width:1.0;" x1="2014" x2="2055" y1="1723.6851" y2="1723.6851"/><polygon fill="#000000" points="2024,1719.6851,2014,1723.6851,2024,1727.6851,2020,1723.6851" style="stroke:#000000;stroke-width:1.0;"/><text fill="#000000" font-family="Verdana" font-size="13" lengthAdjust="spacing" textLength="174" x="2020" y="1705.9556">calculate cosine similarity</text><line style="stroke:#000000;stroke-width:1.0;" x1="2013" x2="2055" y1="1760.4844" y2="1760.4844"/><line style="stroke:#000000;stroke-width:1.0;" x1="2055" x2="2055" y1="1760.4844" y2="1773.4844"/><line style="stroke:#000000;stroke-width:1.0;" x1="2014" x2="2055" y1="1773.4844" y2="1773.4844"/><polygon fill="#000000" points="2024,1769.4844,2014,1773.4844,2024,1777.4844,2020,1773.4844" style="stroke:#000000;stroke-width:1.0;"/><text fill="#000000" font-family="Verdana" font-size="13" lengthAdjust="spacing" textLength="203" x="2020" y="1755.7549">sort by score and select top_k</text><path d="M350,1788.4844 L414,1788.4844 L414,1796.2837 L404,1806.2837 L350,1806.2837 L350,1788.4844 " fill="#FFFFFF" style="stroke:#000000;stroke-width:1.0;"/><rect fill="none" height="330.1611" style="stroke:#000000;stroke-width:1.0;" width="2729.5" x="350" y="1788.4844"/><text fill="#000000" font-family="Verdana" font-size="13" font-weight="bold" lengthAdjust="spacing" textLength="19" x="365" y="1802.5542">alt</text><text fill="#000000" font-family="Verdana" font-size="11" font-weight="bold" lengthAdjust="spacing" textLength="139" x="429" y="1801.5435">[No relevant matches]</text><polygon fill="#000000" points="439.5,1839.8823,429.5,1843.8823,439.5,1847.8823,435.5,1843.8823" style="stroke:#000000;stroke-width:1.0;"/><line style="stroke:#000000;stroke-width:1.0;stroke-dasharray:2.0,2.0;" x1="433.5" x2="2002" y1="1843.8823" y2="1843.8823"/><text fill="#000000" font-family="Verdana" font-size="13" lengthAdjust="spacing" textLength="209" x="1111.25" y="1823.3535">insufficient-information answer</text><text fill="#000000" font-family="Verdana" font-size="13" lengthAdjust="spacing" textLength="188" x="1121.75" y="1839.1528">empty matches and sources</text><line style="stroke:#000000;stroke-width:1.0;stroke-dasharray:2.0,2.0;" x1="350" x2="3079.5" y1="1852.8823" y2="1852.8823"/><text fill="#000000" font-family="Verdana" font-size="11" font-weight="bold" lengthAdjust="spacing" textLength="103" x="355" y="1863.9414">[Matches found]</text><polygon fill="#000000" points="2612,1885.0503,2622,1889.0503,2612,1893.0503,2616,1889.0503" style="stroke:#000000;stroke-width:1.0;"/><line style="stroke:#000000;stroke-width:1.0;" x1="2013" x2="2618" y1="1889.0503" y2="1889.0503"/><text fill="#000000" font-family="Verdana" font-size="13" lengthAdjust="spacing" textLength="225" x="2206" y="1884.3208">build(question, retrieved context)</text><polygon fill="#000000" points="2024,1914.8496,2014,1918.8496,2024,1922.8496,2020,1918.8496" style="stroke:#000000;stroke-width:1.0;"/><line style="stroke:#000000;stroke-width:1.0;stroke-dasharray:2.0,2.0;" x1="2018" x2="2623" y1="1918.8496" y2="1918.8496"/><text fill="#000000" font-family="Verdana" font-size="13" lengthAdjust="spacing" textLength="197" x="2220" y="1914.1201">grounded prompt / messages</text><polygon fill="#000000" points="2752,1944.6489,2762,1948.6489,2752,1952.6489,2756,1948.6489" style="stroke:#000000;stroke-width:1.0;"/><line style="stroke:#000000;stroke-width:1.0;" x1="2013" x2="2758" y1="1948.6489" y2="1948.6489"/><text fill="#000000" font-family="Verdana" font-size="13" lengthAdjust="spacing" textLength="272" x="2252.5" y="1943.9194">answer_from_context(question, context)</text><polygon fill="#000000" points="2941,1974.4482,2951,1978.4482,2941,1982.4482,2945,1978.4482" style="stroke:#000000;stroke-width:1.0;"/><line style="stroke:#000000;stroke-width:1.0;" x1="2774" x2="2947" y1="1978.4482" y2="1978.4482"/><text fill="#000000" font-family="Verdana" font-size="13" lengthAdjust="spacing" textLength="160" x="2783.5" y="1973.7188">generate answer locally</text><polygon fill="#000000" points="2785,2004.2476,2775,2008.2476,2785,2012.2476,2781,2008.2476" style="stroke:#000000;stroke-width:1.0;"/><line style="stroke:#000000;stroke-width:1.0;stroke-dasharray:2.0,2.0;" x1="2779" x2="2957" y1="2008.2476" y2="2008.2476"/><text fill="#000000" font-family="Verdana" font-size="13" lengthAdjust="spacing" textLength="132" x="2800" y="2003.5181">generated response</text><polygon fill="#000000" points="2024,2034.0469,2014,2038.0469,2024,2042.0469,2020,2038.0469" style="stroke:#000000;stroke-width:1.0;"/><line style="stroke:#000000;stroke-width:1.0;stroke-dasharray:2.0,2.0;" x1="2018" x2="2768" y1="2038.0469" y2="2038.0469"/><text fill="#000000" font-family="Verdana" font-size="13" lengthAdjust="spacing" textLength="82" x="2350" y="2033.3174">final answer</text><line style="stroke:#000000;stroke-width:1.0;" x1="2013" x2="2055" y1="2067.8462" y2="2067.8462"/><line style="stroke:#000000;stroke-width:1.0;" x1="2055" x2="2055" y1="2067.8462" y2="2080.8462"/><line style="stroke:#000000;stroke-width:1.0;" x1="2014" x2="2055" y1="2080.8462" y2="2080.8462"/><polygon fill="#000000" points="2024,2076.8462,2014,2080.8462,2024,2084.8462,2020,2080.8462" style="stroke:#000000;stroke-width:1.0;"/><text fill="#000000" font-family="Verdana" font-size="13" lengthAdjust="spacing" textLength="165" x="2020" y="2063.1167">create unique source list</text><polygon fill="#000000" points="439.5,2106.6455,429.5,2110.6455,439.5,2114.6455,435.5,2110.6455" style="stroke:#000000;stroke-width:1.0;"/><line style="stroke:#000000;stroke-width:1.0;stroke-dasharray:2.0,2.0;" x1="433.5" x2="2002" y1="2110.6455" y2="2110.6455"/><text fill="#000000" font-family="Verdana" font-size="13" lengthAdjust="spacing" textLength="228" x="1101.75" y="2105.916">answer + matches + source URLs</text><polygon fill="#000000" points="282,2143.4448,272,2147.4448,282,2151.4448,278,2147.4448" style="stroke:#000000;stroke-width:1.0;"/><line style="stroke:#000000;stroke-width:1.0;stroke-dasharray:2.0,2.0;" x1="276" x2="422.5" y1="2147.4448" y2="2147.4448"/><text fill="#000000" font-family="Verdana" font-size="13" lengthAdjust="spacing" textLength="100" x="297.25" y="2142.7153">JSON response</text><path d="M186,2160.4448 L186,2201.4448 L3041,2201.4448 L3041,2170.4448 L3031,2160.4448 L186,2160.4448 " fill="#FFFFFF" style="stroke:#000000;stroke-width:1.0;"/><path d="M3031,2160.4448 L3031,2170.4448 L3041,2170.4448 L3031,2160.4448 " fill="#FFFFFF" style="stroke:#000000;stroke-width:1.0;"/><text fill="#000000" font-family="Verdana" font-size="13" lengthAdjust="spacing" textLength="405" x="1406.75" y="2178.5146">The answer is grounded in the retrieved agriculture articles.</text><text fill="#000000" font-family="Verdana" font-size="13" lengthAdjust="spacing" textLength="364" x="1406.75" y="2194.314">The original source URLs are returned for verification.</text><!--SRC=[XLTRRzis57xNhpXhNnpKSTfTiC101hXfd6L86ZTEqG5jOT3IiSsLebIIIkBz-fr3KbTdMruYYH_FzJiN_-1sc2EKIaYTEEaKmcnh97mIBjt1CNp2DLpfBLed2mr2Pt0tkuGFLVmmLyLZajXlKfV2Y1piJcJ5ezHRs0XbiNk2tolKATwWjMABCoMt6bBK3aq7PT2MXROrwYsI_9annICuKtN5BOHnCfMbq6uXiemrlZdjdByjdfhlhvD4fAumy6AMvL9BwupWrnDOfZlCAeNc1GWB_hI6peN9aJ6px47QYFX83qcoBfxutBhPuWfcPQbaAZWQB-3bnMp-u_mqALlhI2cXxehAeGrQ5bS9KXn9IXJLYp4BEPsVpd_f2sdE5x949JLwMVLB7xiiAfCYtE6MNTrxPFtIHzujbylKY3Aw5v_xc7Cbh9MRw2CiqJp8DAYlZ-XAtwEB9qgh5Wg2AUJuo_dv_AVpUL_qxOR4IeAH7HnfL-GmHyn2eFpJGF2ISaEy24H4PoG-2CNIVxuud_-QPCA9jR18m0_NqY73Wwd-gQ_zkaY58ZQ7-Cmk1sxlAlqjnYK-zm6_2xiZUbtaQyoo2AnV1bPxJJ3Jzf4OTOaQJSsN-RkBTnVdVS4BK-IbUrj9LOiDNmRMNz-SAqdrun7DspCkmkNbnpbSAv4Bk2aoLE46lxTsdft1Z2zI_SkctC_EaiGN1Hp_nhoTmk9sUGyd0V55Mv_TbSpi69JCfLiHUrRXwvXgUSq-h2XXN5JoGJZqxEU2884rUQTWAZsQJ2P7BQmXTb8_yOsQn5FOeejwxAYruYYf4N3SKu1Qh1LcaOvGhF_2rDaaKKLHmfpA7GLrkxJG6xcj3063p0Jehsj0B90fMFyGLHzvN6DxNKNyCJxpNK_dAVn-Vx-0oulxg69I6PM4-yfv3CNjExTNi5MQ-XA0-ESbUCyQExXmo7nVEN_UN3VGZju6cw4Zhs73Ejo-nFy44uriA3DTc5me-JTI5BdWxE6zNgpPoYk7-UUlli4o98lK-lpLtqMQ370lSwIcE0u1GUhnPiokI4qLBREUDyyuxYyqu-9_J0gX3dSQg2ueLqPkTmwAJKiuQFxkT_4AI4kQqi9ac4qwW5kQdIOAjymU9tM5BG9zz5oGII_-VuO7HE6Z0HK3lp8GiIOVfQDcKplYQ-s0d6qtda8QdlShXqzkvEVwc0YLvyBinzvKIcRWRNjj43Lg-BWj8duZCvxUOy3D1ja116gsz2xpaXmwh1JkjrEeIfgORXNT64KU1CKUCj0PWLJC8If5wRfz1Cx27Z3KHjrxsk2apl1fD2XAxk_yWRUNrZn5pQ8spevyMC_UlAQ_eOLUWUNN9YSsbEqWRpr8muIeDSuH2Yq_XDn4wCIYCEcEsvJ_VjJSZPTQCue7D4gK9UysNb2qvD0QVzeXR6D8FQUeZlXfv857FMGDQVKsZI231-GbgKlqPEXhZB11MYsfEmT3Hsr-nz5sU1MbsLR_8EuHQCK3PabFdzVL8v1FVgTmk8Fv-qJYIZixh47cXHVNqgcUTStATOTbONZSXQ8S1ql6jQvnw18swOXjsecVTIoHn-WK_bZUlkyCMEfVbNBTYpmVUHZpfabZcjmMyBtgp6D_q1_7L1Wd1FsY2SZbwefozUtPaUl3AVmUCkg2EvEN0vB477gur1lIM3S3s4X5kvs53Uqau6Ka_q8gVtYK71B97zGSIfwfo4YMe-Gv8W2NnxX9S8vEyDethcbqCDM90f9xLQSSklvH9QdzqBy35ErHQQMybC8oJImr2oMCTFl0doxO4brWlQSkpkOp1IqgdhqXCmcF-lS5PL_H-afxMiu_jk9WhIdjyokrhVoEJDtwc1B15HX_Y74ElsYalN1Vtm-QmZXA_92zYGSRudxMzIbib5Fm7NDK4untDhzJKm7v6L7teG1l4x4rB91GPJWueJJu7sosgwHPIclEhPWqgoYvexMdgs5YkzFov-RDI-RbbRT0lqfZ54_TZzAazWCnVj7r8lmAVDoth9QHzPU9Jabs1BGsr97OIFwP4_GVN6mSEAIJGKPKMb8Ksh5ktI47ec-lcYo_gl4Vxwvj8D-WeTLDXtj5x3cDSyDUuzSW7YaUFGxEykeJzTBkqsIRDX1QUJea4LiZgInSnJIFOt7YRnUqMVdGT6mbYBzS6KrtYSnKigRvPJb9cdtf7m00]--></g></svg>