<?xml version="1.0" encoding="us-ascii" standalone="no"?><svg xmlns="http://www.w3.org/2000/svg" xmlns:xlink="http://www.w3.org/1999/xlink" contentStyleType="text/css" height="525px" preserveAspectRatio="none" style="width:967px;height:525px;background:#FFFFFF;" version="1.1" viewBox="0 0 967 525" width="967px" zoomAndPan="magnify"><defs/><g><text fill="#000000" font-family="Arial" font-size="14" font-weight="bold" lengthAdjust="spacing" textLength="196" x="378.5" y="23.1318">Agri Watch - System Context</text><!--entity Farmer--><g id="elem_Farmer"><ellipse cx="879" cy="51.0986" fill="#EAF2F8" rx="8" ry="8" style="stroke:#3F4E5E;stroke-width:0.5;"/><path d="M879,59.0986 L879,86.0986 M866,67.0986 L892,67.0986 M879,86.0986 L866,101.0986 M879,86.0986 L892,101.0986 " fill="none" style="stroke:#3F4E5E;stroke-width:0.5;"/><text fill="#000000" font-family="Arial" font-size="14" lengthAdjust="spacing" textLength="47" x="855.5" y="115.7305">Farmer</text></g><!--entity Adviser--><g id="elem_Adviser"><ellipse cx="879" cy="177.0986" fill="#EAF2F8" rx="8" ry="8" style="stroke:#3F4E5E;stroke-width:0.5;"/><path d="M879,185.0986 L879,212.0986 M866,193.0986 L892,193.0986 M879,212.0986 L866,227.0986 M879,212.0986 L892,227.0986 " fill="none" style="stroke:#3F4E5E;stroke-width:0.5;"/><text fill="#000000" font-family="Arial" font-size="14" lengthAdjust="spacing" textLength="121" x="818.5" y="241.7305">Agricultural adviser</text></g><!--entity Admin--><g id="elem_Admin"><ellipse cx="73" cy="241.0986" fill="#EAF2F8" rx="8" ry="8" style="stroke:#3F4E5E;stroke-width:0.5;"/><path d="M73,249.0986 L73,276.0986 M60,257.0986 L86,257.0986 M73,276.0986 L60,291.0986 M73,276.0986 L86,291.0986 " fill="none" style="stroke:#3F4E5E;stroke-width:0.5;"/><text fill="#000000" font-family="Arial" font-size="14" lengthAdjust="spacing" textLength="134" x="6" y="305.7305">System administrator</text></g><!--entity System--><g id="elem_System"><rect fill="#F7F9FC" height="52.1973" rx="2.5" ry="2.5" style="stroke:#3F4E5E;stroke-width:0.5;" width="151" x="367" y="244.5486"/><text fill="#000000" font-family="Arial" font-size="14" lengthAdjust="spacing" textLength="69" x="377" y="267.6805">Agri Watch</text><text fill="#000000" font-family="Arial" font-size="14" lengthAdjust="spacing" textLength="131" x="377" y="283.7791">Agriculture AI Helper</text></g><!--entity EU--><g id="elem_EU"><rect fill="#F7F9FC" height="52.1973" rx="2.5" ry="2.5" style="stroke:#3F4E5E;stroke-width:0.5;" width="164" x="797" y="293.5486"/><text fill="#000000" font-family="Arial" font-size="14" lengthAdjust="spacing" textLength="144" x="807" y="316.6805">European Commission</text><text fill="#000000" font-family="Arial" font-size="14" lengthAdjust="spacing" textLength="132" x="807" y="332.7791">RSS and Atom feeds</text></g><!--entity UK--><g id="elem_UK"><rect fill="#F7F9FC" height="52.1973" rx="2.5" ry="2.5" style="stroke:#3F4E5E;stroke-width:0.5;" width="119" x="819.5" y="380.5486"/><text fill="#000000" font-family="Arial" font-size="14" lengthAdjust="spacing" textLength="99" x="829.5" y="403.6805">UK government</text><text fill="#000000" font-family="Arial" font-size="14" lengthAdjust="spacing" textLength="35" x="829.5" y="419.7791">feeds</text></g><!--entity USDA--><g id="elem_USDA"><rect fill="#F7F9FC" height="52.1973" rx="2.5" ry="2.5" style="stroke:#3F4E5E;stroke-width:0.5;" width="123" x="817.5" y="467.5486"/><text fill="#000000" font-family="Arial" font-size="14" lengthAdjust="spacing" textLength="103" x="827.5" y="490.6805">USDA and other</text><text fill="#000000" font-family="Arial" font-size="14" lengthAdjust="spacing" textLength="79" x="827.5" y="506.7791">official feeds</text></g><g id="elem_GMN17"><path d="M300,332.2286 L300,387.0748 A0,0 0 0 0 300,387.0748 L585,387.0748 A0,0 0 0 0 585,387.0748 L585,342.2286 L575,332.2286 L446.5,332.2286 L442.5,296.9386 L438.5,332.2286 L300,332.2286 A0,0 0 0 0 300,332.2286 " fill="#FEFFDD" style="stroke:#181818;stroke-width:0.5;"/><path d="M575,332.2286 L575,342.2286 L585,342.2286 L575,332.2286 " fill="#FEFFDD" style="stroke:#181818;stroke-width:0.5;"/><text fill="#000000" font-family="Arial" font-size="13" lengthAdjust="spacing" textLength="264" x="306" y="349.4225">The tool helps users discover and summarize</text><text fill="#000000" font-family="Arial" font-size="13" lengthAdjust="spacing" textLength="244" x="306" y="364.3712">agriculture information. It does not replace</text><text fill="#000000" font-family="Arial" font-size="13" lengthAdjust="spacing" textLength="204" x="306" y="379.3199">official legal or professional advice.</text></g><!--link Farmer to System--><g id="link_Farmer_System"><path d="M855.4,92.0486 C833.22,102.9886 798.26,119.5886 767,131.6486 C700.91,157.1586 680.34,152.2686 615,179.6486 C570.39,198.3486 527.1128,221.6901 493.1128,241.2201 " fill="none" id="Farmer-to-System" style="stroke:#181818;stroke-width:1.0;"/><polygon fill="#181818" points="487.91,244.2086,497.7065,243.1943,492.2456,241.7182,493.7218,236.2573,487.91,244.2086" style="stroke:#181818;stroke-width:1.0;"/><text fill="#000000" font-family="Arial" font-size="13" lengthAdjust="spacing" textLength="147" x="617.5" y="128.8425">Ask agriculture questions</text></g><!--link System to Farmer--><g id="link_System_Farmer"><path d="M463.04,244.1086 C491.78,207.3386 549.2,142.0286 615,111.6486 C697.03,73.7886 802.0918,75.4118 849.2918,78.3818 " fill="none" id="System-to-Farmer" style="stroke:#181818;stroke-width:1.0;"/><polygon fill="#181818" points="855.28,78.7586,846.549,74.2013,850.2899,78.4446,846.0466,82.1855,855.28,78.7586" style="stroke:#181818;stroke-width:1.0;"/><text fill="#000000" font-family="Arial" font-size="13" lengthAdjust="spacing" textLength="150" x="616" y="61.1225">Answer, matching articles</text><text fill="#000000" font-family="Arial" font-size="13" lengthAdjust="spacing" textLength="95" x="643.5" y="76.0712">and source links</text></g><!--link Adviser to System--><g id="link_Adviser_System"><path d="M827.35,245.1286 C809.28,256.6386 788.14,267.7686 767,273.6486 C684.22,296.6986 590.7848,291.8639 524.2148,283.6439 " fill="none" id="Adviser-to-System" style="stroke:#181818;stroke-width:1.0;"/><polygon fill="#181818" points="518.26,282.9086,526.702,287.9814,523.2223,283.5214,527.6824,280.0417,518.26,282.9086" style="stroke:#181818;stroke-width:1.0;"/><text fill="#000000" font-family="Arial" font-size="13" lengthAdjust="spacing" textLength="133" x="624.5" y="255.8425">Search policy, funding,</text><text fill="#000000" font-family="Arial" font-size="13" lengthAdjust="spacing" textLength="133" x="624.5" y="270.7912">deadlines and changes</text></g><!--link System to Adviser--><g id="link_System_Adviser"><path d="M518.46,255.5986 C548.41,249.8586 583.27,243.5386 615,238.6486 C684.44,227.9586 758.6848,219.2743 812.0848,213.4943 " fill="none" id="System-to-Adviser" style="stroke:#181818;stroke-width:1.0;"/><polygon fill="#181818" points="818.05,212.8486,808.6718,209.8404,813.079,213.3867,809.5327,217.7939,818.05,212.8486" style="stroke:#181818;stroke-width:1.0;"/><text fill="#000000" font-family="Arial" font-size="13" lengthAdjust="spacing" textLength="118" x="632" y="201.0525">Grounded summary,</text><text fill="#000000" font-family="Arial" font-size="13" lengthAdjust="spacing" textLength="121" x="630.5" y="216.0012">categories and dates</text></g><!--link Admin to System--><g id="link_Admin_System"><path d="M140.13,270.6486 C203.88,270.6486 294.22,270.6486 360.73,270.6486 " fill="none" id="Admin-to-System" style="stroke:#181818;stroke-width:1.0;"/><polygon fill="#181818" points="366.73,270.6486,357.73,266.6486,361.73,270.6486,357.73,274.6486,366.73,270.6486" style="stroke:#181818;stroke-width:1.0;"/><text fill="#000000" font-family="Arial" font-size="13" lengthAdjust="spacing" textLength="84" x="178" y="252.8425">Start ingestion</text><text fill="#000000" font-family="Arial" font-size="13" lengthAdjust="spacing" textLength="98" x="171" y="267.7912">and rebuild index</text></g><!--link System to EU--><g id="link_System_EU"><path d="M518.47,291.4786 C540.18,298.1786 563.76,306.0986 585,314.6486 C598.83,320.2186 600.49,326.2286 615,329.6486 C680.75,345.1686 699.51,332.6886 767,329.6486 C776.57,329.2186 780.607,329.0305 790.537,328.2805 " fill="none" id="System-to-EU" style="stroke:#181818;stroke-width:1.0;"/><polygon fill="#181818" points="796.52,327.8286,787.2443,324.5178,791.5342,328.2052,787.8468,332.4951,796.52,327.8286" style="stroke:#181818;stroke-width:1.0;"/><text fill="#000000" font-family="Arial" font-size="13" lengthAdjust="spacing" textLength="142" x="620" y="326.8425">Fetch published updates</text></g><!--link System to UK--><g id="link_System_UK"><path d="M518.32,283.4786 C541.34,290.0386 565.68,299.8986 585,314.6486 C604.7,329.6886 594.35,347.9386 615,361.6486 C676.17,402.2586 756.41,409.8413 813.23,409.7213 " fill="none" id="System-to-UK" style="stroke:#181818;stroke-width:1.0;"/><polygon fill="#181818" points="819.23,409.7086,810.2216,405.7276,814.23,409.7192,810.2385,413.7276,819.23,409.7086" style="stroke:#181818;stroke-width:1.0;"/><text fill="#000000" font-family="Arial" font-size="13" lengthAdjust="spacing" textLength="142" x="620" y="358.8425">Fetch published updates</text></g><!--link System to USDA--><g id="link_System_USDA"><path d="M518.45,279.2686 C542.57,285.5386 567.54,296.2886 585,314.6486 C621.99,353.5586 576.67,394.0586 615,431.6486 C668.5,484.1186 751.6508,495.1528 811.1108,496.1028 " fill="none" id="System-to-USDA" style="stroke:#181818;stroke-width:1.0;"/><polygon fill="#181818" points="817.11,496.1986,808.175,492.0554,812.1106,496.1188,808.0472,500.0543,817.11,496.1986" style="stroke:#181818;stroke-width:1.0;"/><text fill="#000000" font-family="Arial" font-size="13" lengthAdjust="spacing" textLength="142" x="620" y="428.8425">Fetch published updates</text></g><!--SRC=[ZLDDZzCm4BtxLuoMQxi7FWJi0QcK1bOhSQ1KN7gPsfF4gcE7iRFTikA_CqvIcgvOYKlLUDuyltdpd6no18kABVp0f6kOm_eO4pMm33xHGr8gxgrlaR617UfznQ7pPXbSO3ZKDj6a7ciquM1z1IMwEAqOAh5pgH3EhzZ8XMpHJUfCEg6lHCgZ0lZuv9uNnTlYVR7CbS26U3nzLRnUlLcftnCUr4agZyyW_y6yMXGlYtV2eHoL2L80jbMTmDWioGQlrC1P83V4uyTLDapBG1sZ0pJtDX9V0KPO3FzFkD5BD8trDYP6EHrnSgBKUUwhymws_amlLjt25tBjo3yGNZIkEWujePUDDOsDKKHl_RVr6j0RMAJGG4baOj- -samxDtTGXNjYtv1FMt-6RUukOEjFYvuif9fuwqDPMYtxc_1cY5A3Hp2VVpY5w0OMSGyu6UTdHp7x6jLerILyJSYImZOuguypA6LJagVPrXj2uwods2lHjMYZp24sFc58o0biBgVUYendsdNM6JaszA3K2CvzesOHwkE1U0PDNa7EiD1OxIWE335qh0b4mZvE-qzJtC3dFbSaqAvfa8yYMcEYAh0TLHlvZ1UthpRIM51-U6stSpRMqj-r0t22aqtz7owlwdcayY4Hx4BAgGZbAKtVQvBa1mUr12r29_D4UG5Hvt3qoeUHx2zIqrrQNmOMlyJcQxYLHnDaKBb2x6uTQb9_a-Aeabzv4Is7algCZWz7qxKYkI4hKty0]--></g></svg>